<svg xmlns="http://www.w3.org/2000/svg" width="36" height="36" viewBox="0 0 36 36">
    <path fill="#333" d="M3.42857143,5.41666667 L3.42857143,29.5833333 L32.5714286,29.5833333 L32.5714286,5.41666667 L3.42857143,5.41666667 Z M3.42857143,3 L32.5714286,3 C33.9126915,3 35,4.08197852 35,5.41666667 L35,29.5833333 C35,30.9180215 33.9126915,32 32.5714286,32 L3.42857143,32 C2.08730846,32 1,30.9180215 1,29.5833333 L1,5.41666667 C1,4.08197852 2.08730846,3 3.42857143,3 Z M16.0899309,24.75 L18.4384591,24.75 L13.0963135,10.1260986 L11.2316023,10.1260986 L5.88945661,24.75 L8.24806431,24.75 L9.37697056,21.4801839 L14.9509452,21.4801839 L16.0899309,24.75 Z M10.0220598,19.5142822 L12.1488386,13.1251017 L12.1891567,13.1251017 L14.3159354,19.5142822 L10.0220598,19.5142822 Z M19.365775,24.75 L24.3551374,24.75 C25.4571705,24.75 26.3878368,24.5092798 27.1471645,24.027832 C27.9132118,23.5798182 28.5112574,23.0114509 28.9413191,22.3227132 C29.1025922,22.061929 29.2403442,21.8111788 29.3545794,21.5704549 C29.4620948,21.3230443 29.5427302,21.042204 29.5964879,20.7279256 C29.710723,20.1060556 29.7678397,19.0094412 29.7678397,17.4380493 C29.7678397,15.9602723 29.7308818,14.9204945 29.656965,14.3186849 C29.562889,13.7168752 29.337782,13.1418213 28.9816371,12.5935059 C27.9871195,10.961933 26.4953655,10.1394722 24.5063302,10.1260986 L19.365775,10.1260986 L19.365775,24.75 Z M21.5933489,12.2223918 L24.2543422,12.2223918 C25.3832541,12.1956447 26.2568038,12.6068751 26.8750174,13.4560954 C27.1774046,13.7971208 27.3689135,14.2417846 27.4495501,14.7901001 C27.5100275,15.3384156 27.5402658,16.2478032 27.5402658,17.5182902 C27.5402658,18.8222111 27.5100275,19.7115387 27.4495501,20.1862996 C27.3823529,20.6677474 27.224442,21.0656044 26.9758126,21.3798828 C26.4113567,22.2291031 25.504209,22.6537069 24.2543422,22.6537069 L21.5933489,22.6537069 L21.5933489,12.2223918 Z"></path>
</svg>
