<!-- bubble-plus -->
<svg  xmlns="http://www.w3.org/2000/svg" width="36" height="36" viewBox="0 0 36 36">
    <path fill="#999" fill-rule="evenodd" d="M18,3 C8.596875,3 1,8.73214286 1,15.8571429 C1,20.3035714 3.975,24.1607143 8.4375,26.5178571 L8.4375,26.5714286 C8.4375,28.5 7.003125,30.5357143 6.365625,31.6607143 L6.365625,31.6607143 C6.3125,31.7678571 6.3125,31.9285714 6.3125,32.0357143 C6.3125,32.5714286 6.7375,33 7.26875,33 L7.534375,33 L7.534375,33 C10.88125,32.4642857 13.9625,29.3571429 14.70625,28.5 C15.76875,28.6607143 16.884375,28.7678571 18,28.7678571 C27.403125,28.7678571 35,23.0357143 35,15.9107143 C35,8.78571429 27.403125,3 18,3 L18,3 Z M18,27.1071429 C16.990625,27.1071429 15.98125,27.0535714 14.971875,26.8928571 L14.06875,26.7857143 L13.484375,27.4821429 C13.00625,28.0714286 10.934375,30.1607143 8.596875,31.0714286 C9.2875,29.8392857 9.978125,28.3392857 10.03125,26.7321429 L10.03125,26.5714286 L10.03125,25.6071429 L9.18125,25.1785714 C5.0375,23.0357143 2.59375,19.6071429 2.59375,15.9642857 C2.59375,9.75 9.5,4.71428571 18,4.71428571 C26.5,4.71428571 33.40625,9.75 33.40625,15.9642857 C33.40625,22.0714286 26.5,27.1071429 18,27.1071429 L18,27.1071429 Z M23.3125,14.7857143 L19.0625,14.7857143 L19.0625,10.5 C19.0625,9.91071429 18.584375,9.42857143 18,9.42857143 C17.415625,9.42857143 16.9375,9.91071429 16.9375,10.5 L16.9375,14.7857143 L12.6875,14.7857143 C12.103125,14.7857143 11.625,15.2678571 11.625,15.8571429 C11.625,16.4464286 12.103125,16.9285714 12.6875,16.9285714 L16.9375,16.9285714 L16.9375,21.2142857 C16.9375,21.8035714 17.415625,22.2857143 18,22.2857143 C18.584375,22.2857143 19.0625,21.8035714 19.0625,21.2142857 L19.0625,16.9285714 L23.3125,16.9285714 C23.896875,16.9285714 24.375,16.4464286 24.375,15.8571429 C24.375,15.2678571 23.896875,14.7857143 23.3125,14.7857143 L23.3125,14.7857143 Z"></path>
</svg>