<!-- category -->
<svg xmlns="http://www.w3.org/2000/svg" width="36" height="36" viewBox="0 0 36 36">
    <path fill="#333" d="M4.46153846,4.46153846 L4.46153846,14.3076923 L14.3076923,14.3076923 L14.3076923,4.46153846 L4.46153846,4.46153846 Z M3.23076923,2 L15.5384615,2 C16.2181966,2 16.7692308,2.55103415 16.7692308,3.23076923 L16.7692308,15.5384615 C16.7692308,16.2181966 16.2181966,16.7692308 15.5384615,16.7692308 L3.23076923,16.7692308 C2.55103415,16.7692308 2,16.2181966 2,15.5384615 L2,3.23076923 C2,2.55103415 2.55103415,2 3.23076923,2 Z M20.4615385,2 L32.7692308,2 C33.4489658,2 34,2.55103415 34,3.23076923 L34,15.5384615 C34,16.2181966 33.4489658,16.7692308 32.7692308,16.7692308 L20.4615385,16.7692308 C19.7818034,16.7692308 19.2307692,16.2181966 19.2307692,15.5384615 L19.2307692,3.23076923 C19.2307692,2.55103415 19.7818034,2 20.4615385,2 Z M21.6923077,4.46153846 L21.6923077,14.3076923 L31.5384615,14.3076923 L31.5384615,4.46153846 L21.6923077,4.46153846 Z M3.23076923,19.2307692 L15.5384615,19.2307692 C16.2181966,19.2307692 16.7692308,19.7818034 16.7692308,20.4615385 L16.7692308,32.7692308 C16.7692308,33.4489658 16.2181966,34 15.5384615,34 L3.23076923,34 C2.55103415,34 2,33.4489658 2,32.7692308 L2,20.4615385 C2,19.7818034 2.55103415,19.2307692 3.23076923,19.2307692 Z M4.46153846,21.6923077 L4.46153846,31.5384615 L14.3076923,31.5384615 L14.3076923,21.6923077 L4.46153846,21.6923077 Z M20.4615385,19.2307692 L32.7692308,19.2307692 C33.4489658,19.2307692 34,19.7818034 34,20.4615385 L34,32.7692308 C34,33.4489658 33.4489658,34 32.7692308,34 L20.4615385,34 C19.7818034,34 19.2307692,33.4489658 19.2307692,32.7692308 L19.2307692,20.4615385 C19.2307692,19.7818034 19.7818034,19.2307692 20.4615385,19.2307692 Z M21.6923077,21.6923077 L21.6923077,31.5384615 L31.5384615,31.5384615 L31.5384615,21.6923077 L21.6923077,21.6923077 Z"></path>
</svg>