
<!-- diamond -->
<svg xmlns="http://www.w3.org/2000/svg" width="36" height="36" viewBox="0 0 36 36">
    <path fill="#333" fill-rule="evenodd" d="M34.6501689,10.1867258 C35.1426411,10.9247653 35.1128909,11.8884042 34.5752621,12.5950379 L19.7033427,32.1593677 C19.3011836,32.6885578 18.670054,33 18.000143,33 C17.3297007,33 16.6985711,32.6885578 16.2969432,32.1593677 L1.42502388,12.5950379 C0.887395019,11.8884042 0.857113551,10.9247653 1.34958584,10.1867258 L5.51355326,3.94531877 C5.90721234,3.35593398 6.57606089,3 7.29165978,3 L28.7075637,3 C29.4236938,3 30.0920111,3.35593398 30.4862014,3.94531877 L34.6501689,10.1867258 Z M19.1641201,29.3715672 L32.3408085,12.037059 L29.945385,12.037059 C29.5533197,12.037059 29.2356299,11.7240465 29.2356299,11.3382769 C29.2356299,10.9525072 29.5533197,10.6394947 29.945385,10.6394947 L32.4061527,10.6394947 L28.7978768,5.23191541 L24.8559735,10.6394947 L25.5104782,10.6394947 C25.9020122,10.6394947 26.2191708,10.9525072 26.2191708,11.3382769 C26.2191708,11.7240465 25.9020122,12.037059 25.5104782,12.037059 L24.0128737,12.037059 L19.1641201,29.3715672 Z M3.65894618,12.037059 L16.8356346,29.3715672 L11.986881,12.037059 L3.65894618,12.037059 Z M7.29165978,5.09686987 L3.59360196,10.6394947 L11.1437812,10.6394947 L8.92526527,7.59468891 C8.69629488,7.28167638 8.76907665,6.84461039 9.08676643,6.61953449 C9.40551872,6.39393516 9.84805315,6.46564539 10.0770235,6.77970478 L12.5271661,10.1406637 L16.2039738,5.09686987 L7.29165978,5.09686987 Z M19.7952496,5.09686987 L23.4725885,10.1406637 L27.1493962,5.09686987 L19.7952496,5.09686987 Z M22.5413006,12.037059 L13.4579228,12.037059 L18.000143,28.2728827 L22.5413006,12.037059 Z M18.0490183,5.09686987 L17.9507364,5.09686987 L13.9094886,10.6394947 L22.0902661,10.6394947 L18.0490183,5.09686987 Z"></path>
</svg>