<svg  xmlns="http://www.w3.org/2000/svg" width="36" height="36" viewBox="0 0 20 20">
    <path fill="#333" fill-rule="evenodd" d="M13.5911111,14.4186747 L7.25333333,10.6686747 C7.29777778,10.4608434 7.33333333,10.253012 7.33333333,10.0361446 C7.33333333,9.81927711 7.29777778,9.61144578 7.25333333,9.40361446 L13.52,5.68975904 C14,6.14156627 14.6311111,6.42168675 15.3333333,6.42168675 C16.8088889,6.42168675 18,5.21084337 18,3.71084337 C18,2.21084337 16.8088889,1 15.3333333,1 C13.8577778,1 12.6666667,2.21084337 12.6666667,3.71084337 C12.6666667,3.92771084 12.7022222,4.13554217 12.7466667,4.34337349 L6.48,8.05722892 C6,7.60542169 5.36888889,7.3253012 4.66666667,7.3253012 C3.19111111,7.3253012 2,8.53614458 2,10.0361446 C2,11.5361446 3.19111111,12.746988 4.66666667,12.746988 C5.36888889,12.746988 6,12.4668675 6.48,12.0150602 L12.8088889,15.7740964 C12.7644444,15.9638554 12.7377778,16.1626506 12.7377778,16.3614458 C12.7377778,17.8162651 13.9022222,19 15.3333333,19 C16.7644444,19 17.9288889,17.8162651 17.9288889,16.3614458 C17.9288889,14.9066265 16.7644444,13.7228916 15.3333333,13.7228916 C14.6577778,13.7228916 14.0533333,13.9939759 13.5911111,14.4186747 Z"
    />
</svg>