<svg xmlns="http://www.w3.org/2000/svg" width="36" height="36" viewBox="0 0 36 36">
    <path fill="#333" fill-rule="evenodd" d="M4.72167033,1 L30.2783297,1 C31.2291819,1 32,1.77081806 32,2.72167033 L32,33.2783297 C32,34.2291819 31.2291819,35 30.2783297,35 L4.72167033,35 C3.77081806,35 3,34.2291819 3,33.2783297 L3,2.72167033 C3,1.77081806 3.77081806,1 4.72167033,1 Z M5.41666667,3.42857143 L5.41666667,20.4285714 L29.5833333,20.4285714 L29.5833333,3.42857143 L5.41666667,3.42857143 Z M5.41666667,22.8571429 L5.41666667,25.2857143 L29.5833333,25.2857143 L29.5833333,22.8571429 L5.41666667,22.8571429 Z M5.41666667,26.5 L5.41666667,28.9285714 L24.75,28.9285714 L24.75,26.5 L5.41666667,26.5 Z M5.41666667,30.1428571 L5.41666667,32.5714286 L27.1666667,32.5714286 L27.1666667,30.1428571 L5.41666667,30.1428571 Z M23.5416667,7.07142857 L27.1666667,17.8318681 L7.83333333,17.8318681 L13.875,11.1065934 L17.5,13.7967033 L23.5416667,7.07142857 Z M9.64583333,9.5 C8.64481722,9.5 7.83333333,8.68451865 7.83333333,7.67857143 C7.83333333,6.67262421 8.64481722,5.85714286 9.64583333,5.85714286 C10.6468494,5.85714286 11.4583333,6.67262421 11.4583333,7.67857143 C11.4583333,8.68451865 10.6468494,9.5 9.64583333,9.5 Z"></path>
</svg>