<!-- thumb -->
<svg xmlns="http://www.w3.org/2000/svg" width="36" height="36" viewBox="0 0 36 36">
    <path fill="#333" fill-rule="evenodd" d="M31.9778462,16.5353846 C31.9575385,17.0295385 31.7501538,18 30,18 L28,18 C27.7236923,18 27.5003077,18.2233846 27.5003077,18.4996923 C27.5003077,18.7766154 27.7236923,19 28,19 L29.9378462,19 C31.4375385,19 31.6350769,20.2449231 31.5372308,20.8443077 C31.4153846,21.5901538 31.0646154,23.0006154 29.376,23.0006154 L27,23.0006154 C26.7236923,23.0006154 26.5003077,23.2233846 26.5003077,23.5009231 C26.5003077,23.776 26.7236923,24.0006154 27,24.0006154 L28.9692308,24.0006154 C30.6566154,24.0006154 30.5089231,25.288 30.2658462,26.0553846 C29.9476923,27.0646154 29.752,28 27.6264615,28 L25.9944615,28 C25.7181538,28 25.4941538,28.2227692 25.4941538,28.5003077 C25.4941538,28.7753846 25.7181538,29 25.9944615,29 L27.5624615,29 C28.6566154,29 28.7083077,30.0350769 28.5938462,30.4061538 C28.4689231,30.8123077 28.3218462,31.1132308 28.3150769,31.1273846 C28.0116923,31.672 27.5255385,32 26.4941538,32 L21.0289231,32 C18.2812308,32 15.5581538,31.3772308 15.4873846,31.3612308 C11.3335385,30.4043077 11.1144615,30.3304615 10.8535385,30.256 C10.8535385,30.256 10.008,30.1132308 10.008,29.3753846 L10.0006154,15.5636923 C10.0006154,15.0947692 10.2990769,14.6707692 10.7944615,14.5218462 C10.856,14.4972308 10.9396923,14.4713846 11,14.4461538 C15.5686154,12.5550769 16.9593846,8.40676923 17,5 C17.0061538,4.52184615 17.3753846,4 18.0006154,4 C19.0578462,4 20.9261538,6.12246154 20.9261538,8.74830769 C20.9261538,11.1193846 20.8313846,11.5292308 20.0006154,14 C30,14 29.9298462,14.1433846 30.8129231,14.3747692 C31.9064615,14.6873846 32,15.5938462 32,15.9064615 C32,16.2492308 31.9907692,16.1993846 31.9778462,16.5353846 M31.1643077,12.472 C29.9156923,12.1433846 26.9747692,12.1476923 22.6763077,12.0344615 C22.88,11.0953846 22.9261538,10.2498462 22.9261538,8.74830769 C22.9261538,5.16061538 20.3126154,2 18.0006154,2 C16.3673846,2 15.0209231,3.33538462 15,4.97661538 C14.9778462,6.99015385 14.3556923,10.4689231 11,12.2326154 C10.7544615,12.3624615 10.0498462,12.7089231 9.94769231,12.7550769 L10.0006154,12.8 C9.47507692,12.3470769 8.74769231,12 8,12 L5.00061538,12 C3.34584615,12 2,13.3458462 2,15 L2,31 C2,32.6541538 3.34584615,34 5.00061538,34 L8,34 C9.19076923,34 10.1858462,33.2812308 10.6683077,32.2732308 C10.68,32.2775385 10.7015385,32.2830769 10.7150769,32.2855385 C10.7815385,32.3027692 10.8584615,32.3224615 10.9544615,32.3476923 C10.9716923,32.3513846 10.9815385,32.3532308 11,32.3593846 C11.5766154,32.5021538 12.6849231,32.768 15.0553846,33.3126154 C15.5636923,33.4276923 18.2461538,34 21.0289231,34 L26.4941538,34 C28.1612308,34 29.3618462,33.3593846 30.0763077,32.0726154 C30.0873846,32.0529231 30.3175385,31.6036923 30.5052308,30.9963077 C30.6455385,30.5390769 30.6984615,29.8929231 30.5286154,29.2363077 C31.6018462,28.4978462 31.9476923,27.3827692 32.1729231,26.6566154 C32.5489231,25.4652308 32.4356923,24.5710769 32.1741538,23.9304615 C32.7778462,23.36 33.2935385,22.4904615 33.5107692,21.1649231 C33.6455385,20.3421538 33.5009231,19.4966154 33.1212308,18.792 C33.688,18.1563077 33.9464615,17.3563077 33.9747692,16.6166154 L33.9864615,16.4073846 C33.9944615,16.2756923 34,16.1944615 34,15.9064615 C34,14.6424615 33.1261538,13.032 31.1643077,12.472"></path>
</svg>