<svg xmlns="http://www.w3.org/2000/svg" width="36" height="36" viewBox="0 0 36 36">
    <path fill="#333" fill-rule="evenodd" d="M28.9495494,27.5301852 C27.7911647,28.5658148 26.63278,29.6002963 25.4726366,30.6342037 L25.4726366,11.5623519 L32.4803951,5.79290741 L32.4803951,6.9002963 C32.4798088,13.0032778 32.4798088,18.221 32.4856711,24.3125 C32.4710154,24.3457963 32.4575322,24.3762222 32.4428765,24.4095185 C31.2774571,25.4485926 30.1132101,26.4893889 28.9495494,27.5301852 Z M24.5094655,10.5267222 L15.570675,10.5267222 L22.8498567,4.53224074 C24.0738988,4.53224074 25.2979409,4.53051852 26.5219831,4.53051852 L31.7904058,4.53109259 L24.5094655,10.5267222 Z M24.056312,31.4631667 C20.5975722,31.4683333 17.1394187,31.4694815 13.6818514,31.4694815 L3.63978157,31.4694815 C3.57295168,31.4694815 3.51901879,31.4149444 3.51901879,31.3477778 L3.51901879,27.8769259 C3.51843257,22.2687963 3.51843257,17.4024074 3.5149152,11.9355 L24.056312,11.9355 L24.056312,31.4631667 Z M12.0070006,4.53740741 C14.8800995,4.53396296 17.7537847,4.53453704 20.6268836,4.53338889 L13.3482882,10.5267222 L4.41418754,10.5267222 C5.46529269,9.69833333 6.51581161,8.86937037 7.5657443,8.03983333 C9.04538145,6.87159259 10.5250186,5.70335185 12.0070006,4.53740741 Z M34.9941368,3.27961111 C34.9941368,2.61024074 34.475912,2.05625926 33.812303,2.01664815 L33.6968163,2.00975926 C33.5959852,2.00459259 33.5197757,2.00057407 33.4429799,2.00057407 L26.5219831,2 C21.6264007,2 16.7302322,2.00114815 11.8364086,2.00688889 C11.3850137,2.00746296 10.9459296,2.15959259 10.590676,2.43974074 C9.06355449,3.6407037 7.53877786,4.84568519 6.01400123,6.04894444 C4.58771075,7.17585185 3.16083405,8.30218519 1.73219866,9.4267963 C1.24563019,9.81027778 0.999414817,10.3246481 1.00000104,10.9538333 C1.00469086,16.8943519 1.00469086,21.9364074 1.00469086,27.8769259 L1.00527709,32.3351852 C1.00527709,32.4436852 1.01113936,32.5527593 1.01876031,32.6727407 C1.06448602,33.4242037 1.67181727,34 2.4063598,34 L13.6818514,34 C17.3604263,34 21.0401737,33.9994259 24.7222659,33.9936852 C24.9567568,33.992537 25.551191,33.945463 26.0178278,33.5298333 C27.5537427,32.162963 29.0861403,30.7926481 30.6191241,29.4223333 C31.8320279,28.3379074 33.045518,27.2523333 34.2613529,26.1690556 C34.731507,25.7499815 35.0005853,25.1466296 34.999999,24.5145741 C34.9941368,18.3564815 34.9941368,13.0704444 34.9941368,6.9002963 L34.9941368,3.27961111 Z M17.3662886,16.3042037 C17.757302,16.3042037 18.0744509,16.0676852 18.0744509,15.7760556 L18.0744509,14.7191852 C18.0744509,14.4275556 17.757302,14.191037 17.3662886,14.191037 L10.2829068,14.191037 C9.89189335,14.191037 9.5747445,14.4275556 9.5747445,14.7191852 L9.5747445,15.7760556 C9.5747445,16.0676852 9.89189335,16.3042037 10.2829068,16.3042037 L17.3662886,16.3042037 Z"></path>
</svg>