<!-- document -->
<svg xmlns="http://www.w3.org/2000/svg" width="36" height="36" viewBox="0 0 36 36">
    <path fill="#333" fill-rule="evenodd" d="M11.041362,20.0616514 C11.0187069,20.8000476 11.6408049,21.3808704 12.4845559,21.4095757 C13.2529939,21.4352271 13.8450892,20.8879956 13.8603967,20.1373844 C13.8744796,19.4130354 13.2670768,18.8132793 12.4912912,18.7864064 C11.6738691,18.7583119 11.0652417,19.2939392 11.041362,20.0616514 M16.5600327,8.2778497 C15.8038407,8.26197021 15.1970502,8.83729628 15.1958256,9.57141723 C15.194601,10.3018737 15.8203728,10.8826965 16.6273858,10.9004082 C17.4129682,10.9175092 17.9903683,10.3934861 18.0154726,9.63982118 C18.0411893,8.8757735 17.4215405,8.29556143 16.5600327,8.2778497 M13.1421674,15.0101419 C13.1299214,15.7644176 13.7667146,16.3482942 14.6214871,16.3666167 C15.3372672,16.3812747 15.9501807,15.7955658 15.9685497,15.0773244 C15.9881434,14.3340422 15.3433902,13.7446689 14.4849439,13.7220711 C13.7636531,13.7031379 13.1544134,14.2876252 13.1421674,15.0101419 M25.9276287,13.6243512 C27.001605,13.9046853 27.6518688,13.1015496 27.6475827,12.3778114 C27.635949,11.7670618 27.2795897,11.2943417 26.6587163,11.1019556 C26.2123487,10.9639262 25.7580212,10.8503268 25.3067553,10.7275661 C23.8451923,10.3311897 22.3891401,9.91526923 20.9202295,9.54820875 C20.1842435,9.36437314 19.5149982,9.77479683 19.3411047,10.4276881 C19.1457806,11.1611983 19.5039768,11.8586743 20.2577196,12.0730474 C22.1423827,12.6098962 24.0319442,13.1290333 25.9276287,13.6243512 M17.0351784,15.8334323 C16.8153623,16.5748823 17.1937644,17.2424315 18.0038389,17.5099398 C19.8107397,18.1060314 21.6200898,18.6966262 23.4306644,19.2841672 C23.5984349,19.338524 23.7772269,19.3751689 23.9535696,19.3867732 C24.702414,19.4362439 25.3343088,18.8096148 25.3030815,18.0602252 C25.2779771,17.4329854 24.9381499,17.0109574 24.2640063,16.7892554 C22.815914,16.31226 21.3665971,15.8389291 19.9160555,15.3686519 C19.4402975,15.2141323 18.9669887,15.0400687 18.4789846,14.9362412 C17.8360684,14.7994333 17.221318,15.2068033 17.0351784,15.8334323 M16.656164,20.3242737 C16.4400216,20.2546483 16.1938766,20.2161711 15.9716112,20.243044 C15.3293073,20.3193877 14.8743675,20.7933294 14.8137497,21.3930854 C14.7543564,21.9824587 15.0960205,22.5632816 15.7064848,22.7697149 C17.6021693,23.4103912 19.5015276,24.042517 21.4112951,24.63983 C22.340156,24.929936 23.1796209,24.2874275 23.1520674,23.3731354 C23.1336983,22.7715471 22.7908096,22.333029 22.1411581,22.1180451 C20.3146636,21.5140138 18.4869445,20.913647 16.656164,20.3242737 M33.7271213,4.82222877 C27.3996007,3.56713846 21.0720802,2.31082664 14.7445596,1.05634708 C13.7612039,0.861517971 13.238911,1.16200675 12.8911239,2.11294379 C11.3413896,6.35521013 9.79043065,10.5974765 8.24069633,14.8397428 C7.72513872,16.2499635 7.21447952,17.6626272 6.69463581,19.0716264 C6.25622815,20.2613665 7.18508907,21.1115299 8.08762103,20.9582317 C8.71033134,20.8519613 9.01893115,20.4189399 9.22221514,19.8594933 C10.9207387,15.1860378 12.6266098,10.515636 14.3312563,5.84401276 C14.5780137,5.16730226 14.8284449,4.49181327 15.0813253,3.80533078 C20.7242931,4.92666694 26.3390951,6.04250636 31.9930843,7.16628552 C31.8706241,7.54250724 31.7616345,7.88086249 31.650808,8.21799624 C29.7912492,13.8717048 27.9023,19.5156413 25.7629197,25.0716299 C25.1310248,26.712714 24.4893332,28.3507442 23.5567984,29.8537989 C22.7840743,31.0997279 21.8141892,32.0622692 20.262618,32.2803068 C18.7894213,32.4873509 17.5458376,31.8961454 16.8765924,30.5708188 C16.3549118,29.5386521 16.2489837,28.4203697 16.267965,27.28804 C16.2728634,27.0217532 16.2006119,26.9038786 15.9501807,26.8031049 C11.1656591,24.8822976 6.3854237,22.949886 1.60396367,21.0205282 C1.50415857,20.9808295 1.40251657,20.9466275 1.24760437,20.8898278 C1.1631068,21.5756995 1.04738188,22.2127113 1.01309301,22.8539983 C0.920635531,24.5799766 1.30944679,26.1697576 2.44771471,27.5244001 C3.15369799,28.36357 4.06235297,28.8943113 5.05489321,29.3377155 C8.64481512,30.9403223 12.2188172,32.5795741 15.8032284,34.1943959 C17.0553843,34.7587285 18.3442784,35.0702107 19.7525711,34.986538 C22.1521795,34.8430119 24.0099013,33.8212279 25.3802314,31.8668294 C26.3335844,30.5079116 27.03222,29.0176827 27.6408474,27.4847014 C30.347831,20.6662935 32.6396744,13.7031379 34.8996781,6.72898885 C35.2180747,5.74568208 34.7655841,5.02866212 33.7271213,4.82222877"></path>
</svg>