<!-- fire -->
<svg xmlns="http://www.w3.org/2000/svg" width="36" height="36" viewBox="0 0 36 36">
    <path fill="#333" fill-rule="evenodd" d="M24.7664928,10.5627772 C28.9261949,15.8491037 30.9231091,22.1503745 29.5896899,27.5697462 C28.6227359,31.506615 26.812269,35 17.4513319,35 C11.1326994,35 7,30.2864011 7,25.321917 C7,16.8627809 11.160988,12.6319457 8.04024699,1 C8.04024699,1 14.2817289,5.22956807 16.3622229,12.6319457 C18.441431,9.45913614 18.4967223,6.31166847 18.4967223,6.31166847 C18.4967223,6.31166847 22.6037048,10.5171617 22.6037048,15.8047553 C22.6037048,15.8047553 24.7009148,13.4036075 24.7664928,10.5627772 Z M27.5632013,27.0540379 C28.426002,23.5429136 27.6364944,19.3640294 25.444132,15.3676071 C23.3623522,18.8635263 20.5862172,21.1873812 20.5862172,21.1873812 C20.5862172,16.9375396 20.0191604,12.6420825 19.4006699,11.3623151 C18.5944464,13.3516565 15.5945746,17.6344427 15.5945746,17.6344427 C15.5945746,17.6344427 14.4476027,11.624604 11.2239943,7.08966571 C11.5287391,11.3319047 10.8266688,14.5389259 10.1413145,17.6724556 C9.6012604,20.1445608 9.09206657,22.4798196 9.09206657,25.321917 C9.09206657,29.0345097 12.2179509,32.8750792 17.4513319,32.8750792 C26.132058,32.8750792 26.8919913,29.7833638 27.5632013,27.0540379 Z M25.2178237,18.8445198 L25.411986,19.9430925 C25.8466009,22.406328 25.6035766,25.3181158 24.7934955,27.3619424 C24.7112015,27.5697462 24.5157534,27.6951888 24.3100185,27.6951888 C24.2444405,27.6951888 24.1775767,27.6825178 24.1132845,27.6571759 C23.8458292,27.5469385 23.715959,27.2377669 23.8239699,26.9666083 C24.4347453,25.4270861 24.6919139,23.259084 24.5286118,21.2786122 C23.4793639,22.4709499 22.1562315,23.7127045 19.3312344,25.0773674 L18.8027529,25.3320538 L18.6124482,24.7707301 C18.2356962,23.6544181 17.8538008,22.5279693 17.687927,20.9555026 C17.123442,21.8627436 16.6065331,22.6698841 15.7398749,23.8710916 L15.2088217,24.6060075 L14.8410706,23.7735251 C13.9409805,21.7284314 13.2556262,20.1318898 12.7130005,18.7266798 C12.2102358,20.3675698 11.8347697,22.2669474 11.8347697,26.1011814 C11.8347697,26.3951478 11.5994604,26.6333619 11.3127174,26.6333619 C11.0221169,26.6333619 10.7893793,26.3951478 10.7893793,26.1011814 C10.7893793,21.0986845 11.4425876,19.1701636 12.1330853,17.1288712 L12.675711,15.524727 L13.1759039,16.9590802 C13.7146722,18.5011367 14.4231717,20.199046 15.4248434,22.4962919 C16.0857667,21.5485037 16.5293825,20.8338613 17.0642932,19.9722357 L18.6497376,17.4456453 L18.6497376,19.2613946 C18.6497376,21.3052212 19.0110595,22.642008 19.4096708,23.8546193 C22.1883776,22.4329371 23.2299104,21.1962509 24.330592,19.8911415 L25.2178237,18.8445198 Z"></path>
</svg>