 <!-- gift -->
<svg xmlns="http://www.w3.org/2000/svg" width="36" height="36" viewBox="0 0 36 36">
    <path fill="#333" d="M8.38981061,19.9624272 L14.6290119,19.0731787 C14.960774,19.0258939 15.2954932,19.1371706 15.5325144,19.3735462 L20.5476286,24.375 L20.9928176,24.375 L29.9539721,21.3257923 C31.4164633,20.7167659 33.0834482,21.3958448 33.7342178,22.8497927 C34.3777009,24.2874609 33.8076707,25.9919582 32.5102722,26.6765606 L21.7562855,33.7616249 C21.5588602,33.8916949 21.3236432,33.9524738 21.0877525,33.9343704 L8.38981061,32.9598696 L8.38981061,33.9375 C8.38981061,34.5243025 7.913008,35 7.32484218,35 L5.19490531,35 C3.54177105,35 2,33.4618025 2,31.8125 L2,21.1875 C2,19.593656 3.40318917,17.9612605 5.19462518,18.000559 L7.32456205,18 C7.91283726,17.9998457 8.38981061,18.4755883 8.38981061,19.0625 L8.38981061,19.9624272 Z M8.38981061,22.1090014 L8.38981061,30.8285919 L20.8873865,31.7877156 L31.4225014,24.8523057 C31.8114996,24.6454505 31.979899,24.1419049 31.7893801,23.7162481 C31.6061479,23.3068711 31.1613631,23.1256793 30.7082077,23.3118437 L21.5134515,26.443037 L21.1694318,26.5 L13.7146528,26.5 C13.126487,26.5 12.6496844,26.0243025 12.6496844,25.4375 C12.6496844,24.8506975 13.126487,24.375 13.7146528,24.375 L17.5348298,24.375 L14.4032321,21.2519323 L8.38981061,22.1090014 Z M27.5592425,13.75 L27.5592425,24.375 L25.4293056,24.375 L25.4293056,13.75 L19.039495,13.75 L19.039495,24.375 L16.9095581,24.375 L16.9095581,13.75 L10.5197475,13.75 L10.5197475,20.1349282 L8.38981061,20.1349282 L8.38981061,13.75 C7.21347896,13.75 6.25987374,12.7986051 6.25987374,11.625 L6.25987374,9.5 C6.25987374,8.32639491 7.21347896,7.375 8.38981061,7.375 L10.448071,7.375 C9.37015127,6.31492103 8.65902425,5.22261389 8.45227805,4.26243396 C8.29768985,3.54180016 8.31830161,2.60336485 9.86244675,1.72853057 C10.7261722,1.23839714 11.4876494,1 12.1904178,1 C14.697973,1 16.6566955,4.34906132 17.8992094,7.375 L18.0458775,7.375 C19.0919767,4.82078596 20.6404634,2.0705478 22.6333842,1.23244635 C23.8186946,0.735341565 24.9847768,1.09891015 26.0899314,1.72613535 C27.2004142,2.35528193 27.7491111,3.11209382 27.4999562,4.26033436 C27.2929878,5.22116835 26.5811844,6.31422537 25.5022066,7.375 L27.5592425,7.375 C28.7355741,7.375 29.6891793,8.32639491 29.6891793,9.5 L29.6891793,11.625 C29.6891793,12.7986051 28.7355741,13.75 27.5592425,13.75 Z M15.8494927,7.375 C15.0393027,5.5509721 13.8271513,3.38413407 12.5249536,2.83642634 C12.4228212,2.79363437 12.3419953,2.75980631 12.190302,2.75980631 C12.0023644,2.75980631 11.5800549,2.82041937 10.8630435,3.22720984 C10.2509437,3.57413424 10.274103,3.68276821 10.3251692,3.92063179 C10.5192696,4.82138687 11.5631469,6.13349123 13.2762472,7.375 L15.8494927,7.375 Z M22.6728844,7.375 C24.3887465,6.13185283 25.4325275,4.81841372 25.6266028,3.91758077 C25.6774531,3.68028982 25.7001562,3.57141139 25.0892574,3.22534874 C24.3715614,2.81790855 23.9488899,2.7572782 23.7608943,2.7572782 C23.6091542,2.7572782 23.5283034,2.79111591 23.4257919,2.83413357 C22.1235313,3.38147293 20.9106468,5.54956309 20.0999085,7.375 L22.6728844,7.375 Z M19.039495,11.625 L27.5592425,11.625 L27.5592425,9.5 L8.38981061,9.5 L8.38981061,11.625 L16.9095581,11.625 L16.9095581,9.5 L19.039495,9.5 L19.039495,11.625 Z"></path>
</svg>