<svg xmlns="http://www.w3.org/2000/svg" width="36" height="36" viewBox="0 0 36 36">
    <path fill="#333" d="M19.2332422,6.18260182 C22.4758877,2.48483938 28.1109382,2.1258545 31.8194797,5.38078665 C31.9061588,5.45752668 31.9061588,5.45752668 31.9915041,5.53574829 C35.7022428,8.96626372 36.0577378,14.7035706 32.7974581,18.5429794 L20.8306618,32.6354584 C19.4788222,34.2274277 17.0887505,34.4178033 15.4922872,33.0606742 C15.3220301,32.9159412 15.1648429,32.7564916 15.022559,32.584185 L3.14567021,18.2012061 C0.0712165058,14.4780254 0.276852388,9.04865697 3.62331865,5.58993746 C6.88705998,2.21671777 12.2324545,2.13770173 15.5890684,5.38608512 C15.6679949,5.46246665 15.745431,5.54037345 15.8213329,5.61976118 L17.8584114,7.75039496 L19.2332422,6.18260182 Z M13.0879664,8.23245331 C13.0461134,8.18867814 13.0034143,8.14571957 12.9598935,8.10360205 C11.1090237,6.31241167 8.16152091,6.35598189 6.37646165,8.20091886 C4.34210498,10.3035156 4.21872345,13.5611367 6.06339567,15.7950451 L17.9402845,30.178024 L29.9070808,16.0855449 C31.8552802,13.7912835 31.6428521,10.3629218 29.4254782,8.31299698 C29.3763746,8.26799206 29.3763746,8.26799206 29.3265037,8.22383957 C27.1927888,6.35110949 23.950654,6.55765197 22.0849931,8.68516513 L16.5147748,15.0371834 C15.8624981,15.7810095 15.8955652,16.9038103 16.5906171,17.6124236 L16.6903948,17.7141481 C16.7137027,17.7379108 16.7377752,17.7609113 16.7625739,17.7831131 C17.393927,18.3483506 18.3622596,18.2962708 18.9254054,17.6667897 L24.0106648,11.9825166 C24.7069067,11.2042615 25.9040988,11.139873 26.6846682,11.8387009 C27.4652376,12.5375287 27.5335986,13.734941 26.8373567,14.5131961 L21.7520973,20.1974693 C19.7964678,22.3834605 16.433751,22.5643172 14.2412591,20.601424 C14.1551407,20.524324 14.0715447,20.4444505 13.9906037,20.3619302 L13.8908259,20.2602056 C11.8056702,18.1343657 11.7064688,14.7659635 13.663299,12.5344852 L15.3557981,10.6044379 L13.0879664,8.23245331 Z"></path>
</svg>