<svg xmlns="http://www.w3.org/2000/svg" width="36" height="36" viewBox="0 0 36 36">
    <path fill="#333" fill-rule="evenodd" d="M5.64277889,21.3604619 C4.97838227,21.3604619 4.3725923,21.4050357 3.77525521,21.3507471 C2.5597306,21.2404555 1.70373528,20.5547046 1.25460542,19.4226442 C0.79195094,18.2580106 0.949738094,17.1110923 1.81080514,16.2024723 C2.59579623,15.3749996 17.9070183,2.07714697 18,2 C18.9033315,2.79204228 33.6099885,15.6058691 33.6099885,15.6058691 C34.3346824,16.2350455 34.877921,16.9407975 34.9833003,17.9402794 C35.1608109,19.6232264 33.9013312,21.2210259 32.2456932,21.3518901 C31.6382126,21.3998926 31.0239698,21.3598905 30.3730978,21.3598905 C30.3730978,21.5901885 30.3725342,27.684228 30.3730978,30.5878116 C30.3736613,31.4770019 30.1657204,32.2907596 29.5559857,32.9605097 C29.0172553,33.5519698 28.3573669,33.898274 27.566177,33.9725637 C27.3858488,33.989136 27.2043936,33.9948506 27.0240654,33.9948506 C21.0151924,33.9959935 15.0063195,33.9908504 8.99744651,33.9999937 C7.90477046,34.0017081 6.99073202,33.6525466 6.29984969,32.766785 C5.80282015,32.1296082 5.64334242,31.3855685 5.64334242,30.5929547 C5.64221537,27.6893712 5.64277889,21.3604619 5.64277889,21.3604619 Z M15.875,30.8278244 L20.125,30.8278244 L20.125,23.3333333 L15.875,23.3333333 L15.875,30.8278244 Z M31.8816557,18.2402954 C27.2207358,14.1846504 22.6206767,10.2788808 18.0093471,6.26666667 C13.3946364,10.2800237 8.79457731,14.1846504 4.11844228,18.2517246 L8.74667764,18.2517246 L8.74667764,30.82611 L13.75,30.82611 L13.75,21.2 L22.25,21.2 L22.25,30.8266815 L27.2939941,30.8266815 L27.2939941,18.2402954 L31.8816557,18.2402954 Z"></path>
</svg>