<svg xmlns="http://www.w3.org/2000/svg" width="36" height="36" viewBox="0 0 36 36">
    <path fill="#333" d="M25.8333333,23.2515738 L25.8333333,35 L17.289916,31.8098985 L9.16666667,35 L9.16666667,23.2515738 C6.60937767,20.9171586 5,17.5247289 5,13.7489235 C5,6.70788749 10.5964406,1 17.5,1 C24.4035594,1 30,6.70788749 30,13.7489235 C30,17.5247289 28.3906223,20.9171586 25.8333333,23.2515738 Z M23.75,24.7922681 C21.9114165,25.8770109 19.7767946,26.4978471 17.5,26.4978471 C15.2232054,26.4978471 13.0885835,25.8770109 11.25,24.7922681 L11.25,31.9049578 L17.2714504,29.540259 L23.75,31.9593414 L23.75,24.7922681 Z M17.5,24.3730265 C23.2529661,24.3730265 27.9166667,19.6164536 27.9166667,13.7489235 C27.9166667,7.8813935 23.2529661,3.12482059 17.5,3.12482059 C11.7470339,3.12482059 7.08333333,7.8813935 7.08333333,13.7489235 C7.08333333,19.6164536 11.7470339,24.3730265 17.5,24.3730265 Z M17.5,23.3106162 C12.3223305,23.3106162 8.125,19.0297006 8.125,13.7489235 C8.125,8.4681465 12.3223305,4.18723088 17.5,4.18723088 C22.6776695,4.18723088 26.875,8.4681465 26.875,13.7489235 C26.875,19.0297006 22.6776695,23.3106162 17.5,23.3106162 Z M17.5,22.2482059 C22.1023729,22.2482059 25.8333333,18.4429476 25.8333333,13.7489235 C25.8333333,9.05489951 22.1023729,5.24964118 17.5,5.24964118 C12.8976271,5.24964118 9.16666667,9.05489951 9.16666667,13.7489235 C9.16666667,18.4429476 12.8976271,22.2482059 17.5,22.2482059 Z M13.8808499,19.1642276 C13.9181702,18.936314 13.9519123,18.7285126 13.9862627,18.5208214 C14.1327172,17.6356653 14.2793505,16.7505093 14.4258765,15.8653532 C14.4497787,15.7208245 14.4781178,15.5768462 14.4947921,15.4314367 C14.4994079,15.3910655 14.4814813,15.3338486 14.4535358,15.3056621 C13.8390569,14.6865521 13.2217512,14.0704147 12.6049823,13.4537269 C12.3808816,13.2297037 12.1564946,13.0060107 11.9327517,12.7815471 C11.8227946,12.6712604 11.7661164,12.5417791 11.81732,12.3839646 C11.8702053,12.2210486 11.9913979,12.1450407 12.1517356,12.1214419 C13.2661205,11.957535 14.3798971,11.7892974 15.4952123,11.6325472 C15.6444219,11.6115542 15.7223544,11.5567595 15.7891946,11.4165248 C16.2991194,10.3467991 16.819743,9.28239512 17.3355002,8.21556885 C17.3962933,8.08979434 17.4742258,7.9946652 17.6230419,7.99183922 C17.7475621,7.98945365 17.8436002,8.04112874 17.9002068,8.15633335 C18.0274823,8.41536939 18.1526824,8.67543307 18.2780256,8.93546004 C18.6975301,9.80582556 19.1164264,10.6765214 19.5377199,11.5460061 C19.5506729,11.5727244 19.5853812,11.6012412 19.6133267,11.6054985 C20.4351962,11.730539 21.257531,11.8523865 22.0797226,11.975335 C22.427449,12.0273037 22.774925,12.0811075 23.1226514,12.1331496 C23.2793036,12.1566382 23.3878653,12.2436564 23.4348824,12.3970668 C23.4802894,12.5454125 23.4316263,12.6738662 23.3256051,12.7800424 C22.8096332,13.2970134 22.2932677,13.8135441 21.7768306,14.3300013 C21.4503585,14.6565306 21.1245662,14.9837939 20.7955178,15.3075706 C20.7504329,15.3519055 20.7524009,15.3953228 20.7609527,15.4469612 C20.8582431,16.0341047 20.9553546,16.6212849 21.0527166,17.2083916 C21.1560541,17.831649 21.2599999,18.4547962 21.3629438,19.0781269 C21.3852358,19.2131868 21.345697,19.3254553 21.2377437,19.4095374 C21.1230634,19.4988678 21.0028011,19.5018039 20.8777441,19.434384 C20.4165897,19.1858445 19.9553638,18.9375251 19.4942094,18.6889489 C18.8960469,18.3665301 18.2975624,18.044772 17.700545,17.7201144 C17.6464789,17.6907169 17.6063318,17.6932493 17.5539116,17.7216559 C16.5064743,18.2894579 15.4580709,18.8554983 14.4099179,19.4219057 C14.2139058,19.5278249 14.0336019,19.4910872 13.9345224,19.3182619 C13.9055035,19.2676878 13.8949121,19.2059934 13.8808499,19.1642276 Z"></path>
</svg>