
<!-- message -->
<svg xmlns="http://www.w3.org/2000/svg" width="36" height="36" viewBox="0 0 72 72">
    <path fill="#333" d="M38.6207773,56.0502415 L40.2169622,55.8530433 C54.4450584,54.0952544 65,43.6939965 65,31.5555556 C65,18.1018085 52.1075773,7 36,7 C19.8924227,7 7,18.1018085 7,31.5555556 C7,43.6939965 17.5549416,54.0952544 31.7830378,55.8530433 L33.3792227,56.0502415 L36,61.2917961 L38.6207773,56.0502415 Z M31.4152038,58.8304076 C15.914091,56.9153458 4,45.4335512 4,31.5555556 C4,16.3370424 18.326888,4 36,4 C53.673112,4 68,16.3370424 68,31.5555556 C68,45.4335512 56.085909,56.9153458 40.5847962,58.8304076 L36,68 L31.4152038,58.8304076 Z M23.1111111,36 C25.3202501,36 27.1111111,34.209139 27.1111111,32 C27.1111111,29.790861 25.3202501,28 23.1111111,28 C20.9019721,28 19.1111111,29.790861 19.1111111,32 C19.1111111,34.209139 20.9019721,36 23.1111111,36 Z M36.4444444,36 C38.6535834,36 40.4444444,34.209139 40.4444444,32 C40.4444444,29.790861 38.6535834,28 36.4444444,28 C34.2353054,28 32.4444444,29.790861 32.4444444,32 C32.4444444,34.209139 34.2353054,36 36.4444444,36 Z M49.7777778,36 C51.9869168,36 53.7777778,34.209139 53.7777778,32 C53.7777778,29.790861 51.9869168,28 49.7777778,28 C47.5686388,28 45.7777778,29.790861 45.7777778,32 C45.7777778,34.209139 47.5686388,36 49.7777778,36 Z"></path>
</svg>