<svg xmlns="http://www.w3.org/2000/svg" width="36" height="36" viewBox="0 0 36 36">
    <path fill="#333" d="M12.6205492,18.7168914 C10.3331084,17.0371126 8.84615385,14.3138391 8.84615385,11.24 C8.84615385,6.13688891 12.9444704,2 18,2 C23.0555296,2 27.1538462,6.13688891 27.1538462,11.24 C27.1538462,14.3138391 25.6668916,17.0371126 23.3794508,18.7168914 C30.1318075,20.9887899 35,27.4205306 35,35 L32.3846154,35 C32.3846154,26.9808254 25.9444037,20.48 18,20.48 C10.0555963,20.48 3.61538462,26.9808254 3.61538462,35 L1,35 C1,27.4205306 5.86819255,20.9887899 12.6205492,18.7168914 Z M18,17.84 C21.6110926,17.84 24.5384615,14.8850793 24.5384615,11.24 C24.5384615,7.59492065 21.6110926,4.64 18,4.64 C14.3889074,4.64 11.4615385,7.59492065 11.4615385,11.24 C11.4615385,14.8850793 14.3889074,17.84 18,17.84 Z"></path>
</svg>