
<!-- video -->
<svg xmlns="http://www.w3.org/2000/svg" width="36" height="36" viewBox="0 0 36 36">
    <path fill="#343331" fill-rule="evenodd" d="M31.6,27.6565 L25.9333333,22 L25.9333333,13 L31.6,7.375 L31.7280667,7.375 L32.7333333,7.375 L32.7333333,27.6565 L31.6,27.6565 Z M4.4,28.75 C3.77326667,28.75 3.26666667,28.244875 3.26666667,27.625 L3.26666667,7.375 C3.26666667,6.752875 3.77326667,6.25 4.4,6.25 L22.5333333,6.25 C23.1578,6.25 23.6666667,6.754 23.6666667,7.375 L23.6666667,27.625 C23.6666667,28.244875 23.1578,28.75 22.5333333,28.75 L4.4,28.75 Z M32.7333333,5.125 C33.9845333,5.125 35,6.131875 35,7.375 L35,27.6565 C35,28.8985 33.9845333,29.9065 32.7333333,29.9065 L31.7280667,29.9065 C31.1330667,29.9065 30.5618667,29.673625 30.1368667,29.2585 L25.9333333,25.375 L25.9333333,27.625 C25.9333333,29.489125 24.4101333,31 22.5333333,31 L4.4,31 C2.52093333,31 1,29.489125 1,27.625 L1,7.375 C1,5.513125 2.52546667,4 4.4,4 L22.5333333,4 C24.4101333,4 25.9333333,5.50975 25.9333333,7.375 L25.9333333,9.625 L30.1368667,5.773 C30.5618667,5.357875 31.1330667,5.125 31.7280667,5.125 L32.7333333,5.125 Z M19.0958333,17.5 L8.97083333,11.8333333 L8.97083333,23.1666667 L19.0958333,17.5 Z"></path>
</svg>