<svg xmlns="http://www.w3.org/2000/svg" width="18" height="18" viewBox="0 0 18 18">
    <path fill="#333" d="M9,17 C13.418278,17 17,13.418278 17,9 C17,4.581722 13.418278,1 9,1 C4.581722,1 1,4.581722 1,9 C1,13.418278 4.581722,17 9,17 Z M9,18 C4.02943725,18 0,13.9705627 0,9 C0,4.02943725 4.02943725,0 9,0 C13.9705627,0 18,4.02943725 18,9 C18,13.9705627 13.9705627,18 9,18 Z M5.94335938,6.52539062 L4.63964844,6.52539062 L5.26464844,5.4609375 L7.08105469,5.4609375 L7.08105469,13 L5.94335938,13 L5.94335938,6.52539062 Z M10.8408203,13.2587891 L10.0058594,12.6386719 L11.8076172,10.1826172 C11.7099604,10.1956381 11.6269535,10.2054036 11.5585938,10.2119141 C11.490234,10.2184245 11.434896,10.2216797 11.3925781,10.2216797 C10.7838511,10.2216797 10.2565126,9.98893462 9.81054688,9.5234375 C9.36783633,9.06119561 9.14648438,8.50456055 9.14648438,7.85351562 C9.14648438,7.16015278 9.39225015,6.56771079 9.88378906,6.07617188 C10.3785832,5.58137773 10.9710252,5.33398438 11.6611328,5.33398438 C12.3479852,5.33398438 12.94531,5.57812256 13.453125,6.06640625 C13.96094,6.55143472 14.2148438,7.12434565 14.2148438,7.78515625 C14.2148438,8.37109668 13.9674504,9.00422837 13.4726562,9.68457031 L10.8408203,13.2587891 Z M10.2548828,7.77050781 C10.2548828,8.17741089 10.3932278,8.51920435 10.6699219,8.79589844 C10.9498712,9.07584775 11.2867819,9.21582031 11.6806641,9.21582031 C12.0745462,9.21582031 12.4098293,9.07747534 12.6865234,8.80078125 C12.9664728,8.52083193 13.1064453,8.18392124 13.1064453,7.79003906 C13.1064453,7.39615688 12.9664728,7.05924619 12.6865234,6.77929688 C12.4098293,6.50260278 12.0729187,6.36425781 11.6757812,6.36425781 C11.2851543,6.36425781 10.9514988,6.50260278 10.6748047,6.77929688 C10.3948554,7.05924619 10.2548828,7.38964653 10.2548828,7.77050781 Z"></path>
</svg>