<svg xmlns="http://www.w3.org/2000/svg" width="32" height="32" viewBox="0 0 32 32">
    <g fill="none" fill-rule="evenodd">
        <path fill="#666" fill-rule="nonzero" d="M27.27 7.2c.448.475.81.888.954 1.115 2.78 4.378 2.996 10.05.08 13.79-.632.81-1.337.676-2.493.04-.102-.056-.521-.293-.63-.352a9.755 9.755 0 0 0-.65-.333c-1.51-.692-2.668-.528-4.026 1.024-1.228 1.403-1.333 2.457-.729 3.636.161.314.172.33.703 1.116.376.556.54.863.597 1.252.093.64-.235 1.169-.873 1.496-5.218 2.68-12.413 1.81-16.367-2.144C-1.418 22.585-.82 13.52 5.112 7.59 10.264 2.437 18.984 1.147 24.406 4.5c.129.08.37.28.673.553l-1.081 1.101a4.144 4.144 0 0 0-.416-.345C18.786 2.843 10.847 4.003 6.186 8.664.833 14.016.299 22.113 4.93 26.745 8.415 30.23 14.89 31 19.518 28.625a4.55 4.55 0 0 0-.315-.515l-.183-.27c-.078-.114-.14-.208-.201-.301a7.884 7.884 0 0 1-.41-.7c-.882-1.72-.709-3.457.95-5.353 1.847-2.11 3.745-2.38 5.832-1.422.239.11.474.23.75.383.117.064.536.3.629.351.286.158.477.247.603.285 2.398-3.178 2.188-8.092-.248-11.929-.098-.154-.379-.47-.739-.85L27.27 7.2zM9.05 11.317c-.69-1.196-.087-2.837 1.348-3.665 1.435-.828 3.158-.53 3.848.665.69 1.196.087 2.837-1.348 3.665-1.435.829-3.158.53-3.848-.665zm1.299-.75c.243.42 1.035.557 1.8.116.764-.441 1.04-1.195.798-1.616-.243-.42-1.034-.557-1.799-.116-.764.441-1.042 1.195-.799 1.616zm-3.891 8.278c-1.368-.192-2.289-1.678-2.058-3.319.23-1.64 1.526-2.815 2.893-2.623 1.367.192 2.289 1.678 2.058 3.32-.23 1.64-1.526 2.814-2.893 2.622zm.209-1.485c.48.067 1.076-.473 1.199-1.347.122-.874-.301-1.557-.782-1.624-.48-.068-1.076.472-1.199 1.346-.123.874.3 1.557.782 1.625z"/>
        <path fill="#E6524B" fill-rule="nonzero" d="M8.625 26.715c1.995 1.151 4.376.92 5.306-.69.93-1.61-.061-3.788-2.056-4.94-1.995-1.151-4.376-.92-5.306.69-.93 1.61.061 3.788 2.056 4.94zm.75-1.3c-1.353-.78-1.957-2.11-1.507-2.89.451-.781 1.904-.922 3.257-.14 1.353.78 1.957 2.109 1.507 2.89-.451.78-1.904.922-3.257.14z"/>
        <path fill="#666" fill-rule="nonzero" d="M20.592 14.791c0 1.158-.53 2.43-1.542 3.443-1.22 1.22-2.571 1.356-4.137 1.475-.65.049-2.984.098-3.997-1.5-.101-.156-.077-.289.074-.398.24-.175 1.189-.117 1.272-.486.387-1.733.477-2.68 1.838-4.04 1.022-1.022 2.31-1.552 3.475-1.542a.99.99 0 0 1 .288-.772l9.49-9.489a2.493 2.493 0 0 1 3.524.01c.977.977.981 2.555.01 3.526L27.68 8.225l-6.282 6.282a.99.99 0 0 1-.806.284zm9.235-10.834a.997.997 0 0 0-.004-1.41.997.997 0 0 0-1.41-.004l-9.138 9.137 1.414 1.415 9.138-9.138zM13.721 17.66c-.041.184-.107.35-.191.496.393.074.828.094 1.26.061 1.839-.14 2.485-.329 3.2-1.044 1.214-1.214 1.409-2.808.694-3.523-.714-.714-2.308-.52-3.523.695-.596.596-.862 1.038-1.056 1.676-.057.191-.112.407-.18.704l-.204.935z"/>
    </g>
</svg>
