<!-- bubble-left -->
<svg xmlns="http://www.w3.org/2000/svg" width="36" height="36" viewBox="0 0 36 36">
    <path fill="#333" d="M3.72,16.4556403 C3.72,20.2145513 6.20046195,23.5285318 9.97515557,25.4963358 C9.96801498,27.1968172 8.77285897,28.9542242 8.24757943,29.8777851 C8.20696733,29.9770633 8.18286784,30.0877267 8.18286784,30.2033995 C8.18286784,30.6592596 8.39840276,30.7836853 8.91599331,30.6068865 C9.43358385,30.4300877 15.2466951,27.1772348 15.2466951,27.1772348 C15.2466951,27.1772348 17.0581731,27.3853548 18.0011771,27.3853548 C25.8879572,27.3853548 32.2823542,22.4915751 32.2823542,16.4556403 C32.2823542,10.4197056 25.8879572,5.52592593 18.0011771,5.52592593 C10.1135045,5.52592593 3.72,10.4197056 3.72,16.4556403 Z M15.3744771,29.7271118 C14.6473545,30.1315855 13.9166945,30.5361151 13.2292355,30.9140598 C13.1864085,30.9376023 13.1864085,30.9376023 13.143566,30.9611432 C11.0283701,32.1232631 10.056948,32.6404701 9.6401943,32.782825 C7.77265166,33.4207411 5.91620118,32.3876593 5.91620118,30.2033995 C5.91620118,29.7843022 5.99938985,29.375644 6.153606,28.9986552 L6.21002703,28.8607312 L6.28360199,28.7313697 C6.29196835,28.7166597 6.84260774,27.7849883 7.00494177,27.4866895 C7.17083102,27.1818577 7.30782619,26.900056 7.41548031,26.6415392 C3.71793937,24.1917858 1.45333333,20.5189891 1.45333333,16.4556403 C1.45333333,8.98887545 8.97825628,3.22962963 18.0011771,3.22962963 C27.0235003,3.22962963 34.5490209,8.9890842 34.5490209,16.4556403 C34.5490209,23.9221965 27.0235003,29.6816511 18.0011771,29.6816511 C17.6540065,29.6816511 17.230778,29.6609254 16.7358324,29.6240703 C16.5212993,29.6080955 16.2973617,29.5893354 16.0671638,29.5683502 C15.9497111,29.557643 15.8333143,29.5466072 15.7188762,29.5353884 C15.6090023,29.5966118 15.5044233,29.6548272 15.3744771,29.7271118 Z M11.88,17.9259259 C13.0066609,17.9259259 13.92,17.0006477 13.92,15.8592593 C13.92,14.7178708 13.0066609,13.7925926 11.88,13.7925926 C10.7533391,13.7925926 9.84,14.7178708 9.84,15.8592593 C9.84,17.0006477 10.7533391,17.9259259 11.88,17.9259259 Z M18,17.9259259 C19.1266609,17.9259259 20.04,17.0006477 20.04,15.8592593 C20.04,14.7178708 19.1266609,13.7925926 18,13.7925926 C16.8733391,13.7925926 15.96,14.7178708 15.96,15.8592593 C15.96,17.0006477 16.8733391,17.9259259 18,17.9259259 Z M24.12,17.9259259 C25.2466609,17.9259259 26.16,17.0006477 26.16,15.8592593 C26.16,14.7178708 25.2466609,13.7925926 24.12,13.7925926 C22.9933391,13.7925926 22.08,14.7178708 22.08,15.8592593 C22.08,17.0006477 22.9933391,17.9259259 24.12,17.9259259 Z"></path>
</svg>