<!-- camera -->
<svg xmlns="http://www.w3.org/2000/svg" width="36" height="36" viewBox="0 0 36 36">
    <path fill="#333" fill-rule="evenodd" d="M27.8469968,9.71944444 L26.3870393,6.01388889 C25.9003868,4.80555556 24.7648642,4 23.3860155,4 L12.760769,4 C11.463029,4 10.2463977,4.80555556 9.75974518,6.01388889 L8.29978765,9.71944444 L3.67658881,10.525 C2.13552252,10.7666667 1,12.1361111 1,13.6666667 L1,29.7777778 C1,31.55 2.45995753,33 4.16324132,33 L31.8213256,33 C33.6057182,33 34.984567,31.55 34.984567,29.7777778 L34.984567,13.6666667 C35.1467845,12.0555556 34.0112619,10.7666667 32.4701956,10.525 L27.8469968,9.71944444 Z M32.4099723,29.780454 C32.4099723,30.2621816 32.0870598,30.5833333 31.6834191,30.5833333 L4.15512465,30.5833333 C3.75148397,30.5833333 3.42857143,30.2621816 3.42857143,29.780454 L3.42857143,13.7228682 C3.42857143,13.3214286 3.67075584,13.0002769 4.07439652,12.9199889 L8.67590028,12.1171096 L10.0482786,11.8762458 L10.5326474,10.591639 L11.9857539,6.89839424 C12.1472101,6.57724252 12.3893945,6.41666667 12.7123071,6.41666667 L23.2876929,6.41666667 C23.6106055,6.41666667 23.8527899,6.57724252 24.0142461,6.89839424 L25.4673526,10.591639 L25.9517214,11.8762458 L27.3240997,12.1171096 L31.9256035,12.9199889 C32.3292442,13.0002769 32.5714286,13.3214286 32.5714286,13.7228682 L32.5714286,29.780454 L32.4099723,29.780454 Z M10,20 C10,24.4 13.6,28 18,28 C22.4,28 26,24.4 26,20 C26,15.6 22.4,12 18,12 C13.6,12 10,15.6 10,20 Z M12,20 C12,16.6571429 14.6571429,14 18,14 C21.3428571,14 24,16.6571429 24,20 C24,23.3428571 21.3428571,26 18,26 C14.6571429,26 12,23.3428571 12,20 Z"></path>
</svg>