<svg xmlns="http://www.w3.org/2000/svg" width="20" height="20" viewBox="0 0 20 20">
    <path fill="#333" fill-rule="nonzero" d="M4.527 12.6a2.743 2.743 0 0 1-.388-.996L2.325 2.532C2.219 1.935 1.949 1.5 1.342 1.5H.75a.75.75 0 0 1 0-1.5h.592c1.334 0 2.228.958 2.46 2.271l.18.9h15.264a.75.75 0 0 1 .75.792c-.001.054-.007.11-.02.164l-1.705 7.618a2.75 2.75 0 0 1-2.68 2.13H6.848c-.419 0-.818-.094-1.176-.264l-.834 1.412c.94.128 1.713.778 2.018 1.649a.754.754 0 0 1 .14-.013h7.146a2.501 2.501 0 1 1-.058 1.5H6.996a.758.758 0 0 1-.086-.005 2.501 2.501 0 1 1-4.33-2.26L4.528 12.6zm1.467-.562l.45.266-.002.004c.128.043.264.067.406.067h8.743a1.25 1.25 0 0 0 1.218-.968l1.728-6.736H4.282l1.335 6.672c.048.275.185.515.377.695zM4.496 18.5a1 1 0 1 0 0-2 1 1 0 0 0 0 2zm12 0a1 1 0 1 0 0-2 1 1 0 0 0 0 2z"/>
</svg>
