<svg xmlns="http://www.w3.org/2000/svg" width="20" height="20" viewBox="0 0 20 20">
    <path fill="#333" fill-rule="nonzero" d="M14.282 16H10.75v3.25a.75.75 0 1 1-1.5 0V16H5.718a.646.646 0 0 1-.004.012l-.886 2.258a.951.951 0 0 1-1.057.589.646.646 0 0 1-.485-.87L4.066 16H1a1 1 0 0 1-1-1V1a1 1 0 0 1 1-1h18a1 1 0 0 1 1 1v14a1 1 0 0 1-1 1h-3.066l.78 1.988a.646.646 0 0 1-.485.87.951.951 0 0 1-1.057-.588l-.886-2.258a.645.645 0 0 1-.004-.012zM1.5 1.5v13h17v-13h-17zM10.37 12C8.246 12 6.5 10.612 6.5 7.99 6.5 5.407 8.228 4 10.35 4c1.23 0 2.433.575 2.977 1.525.188.329.122.813-.235 1.032-.328.201-.835.192-1.07-.164-.357-.53-.892-.932-1.672-.932-1.155 0-2.178.84-2.178 2.53 0 1.68 1.042 2.548 2.197 2.548a2.06 2.06 0 0 0 1.747-.96c.197-.319.723-.364 1.06-.154.32.2.424.657.217 1.032-.526.959-1.747 1.543-3.024 1.543z"/>
</svg>
