<svg xmlns="http://www.w3.org/2000/svg" width="12" height="12" viewBox="0 0 12 12">
    <path fill="#333" fill-rule="evenodd" d="M18.00005,15.3217 C17.27155,15.3217 16.67855,14.7287 16.67855,14.0002 C16.67855,13.2712 17.27155,12.6782 18.00005,12.6782 C18.72855,12.6782 19.32155,13.2712 19.32155,14.0002 C19.32155,14.7287 18.72855,15.3217 18.00005,15.3217 L18.00005,15.3217 Z M18.00005,11.7972 C16.78555,11.7972 15.79755,12.7852 15.79755,14.0002 C15.79755,15.2147 16.78555,16.2027 18.00005,16.2027 C19.21455,16.2027 20.20255,15.2147 20.20255,14.0002 C20.20255,12.7852 19.21455,11.7972 18.00005,11.7972 L18.00005,11.7972 Z M23.07655,14.4707 C23.07655,14.5807 22.99905,14.6757 22.89055,14.6972 L21.57055,14.9612 L21.48405,15.2112 C21.43705,15.3467 21.38205,15.4787 21.31955,15.6062 L21.20355,15.8442 L21.95105,16.9662 C22.01205,17.0572 22.00005,17.1792 21.92205,17.2572 L21.25655,17.9232 C21.18155,17.9982 21.05605,18.0117 20.96605,17.9517 L19.84455,17.2047 L19.60755,17.3197 C19.47955,17.3817 19.34705,17.4372 19.21105,17.4847 L18.96155,17.5712 L18.69605,18.8922 C18.67505,18.9992 18.58005,19.0772 18.47055,19.0772 L17.52855,19.0772 C17.41955,19.0772 17.32405,18.9987 17.30255,18.8912 L17.03805,17.5712 L16.78905,17.4847 C16.65305,17.4372 16.52155,17.3822 16.39355,17.3202 L16.15555,17.2042 L15.03505,17.9512 C14.94355,18.0117 14.81855,17.9992 14.74305,17.9232 L14.07705,17.2567 C13.99955,17.1792 13.98755,17.0572 14.04855,16.9657 L14.79455,15.8452 L14.68055,15.6082 C14.61855,15.4802 14.56255,15.3477 14.51555,15.2112 L14.42905,14.9617 L13.10855,14.6972 C13.00105,14.6757 12.92355,14.5807 12.92355,14.4707 L12.92355,13.5292 C12.92355,13.4197 13.00105,13.3242 13.10855,13.3032 L14.42905,13.0387 L14.51555,12.7892 C14.56255,12.6527 14.61805,12.5207 14.68005,12.3927 L14.79505,12.1552 L14.04855,11.0337 C13.98755,10.9427 13.99955,10.8207 14.07755,10.7432 L14.74305,10.0772 C14.81855,10.0012 14.94505,9.9887 15.03405,10.0482 L16.15505,10.7957 L16.39255,10.6802 C16.52105,10.6182 16.65305,10.5627 16.78905,10.5152 L17.03805,10.4287 L17.30255,9.1092 C17.32405,9.0012 17.41955,8.9232 17.52855,8.9232 L18.47055,8.9232 C18.58005,8.9232 18.67505,9.0007 18.69655,9.1092 L18.96055,10.4287 L19.21005,10.5152 C19.34605,10.5627 19.47855,10.6182 19.60755,10.6802 L19.84455,10.7957 L20.96555,10.0487 C21.05655,9.9877 21.18155,10.0017 21.25655,10.0772 L21.92255,10.7432 C22.00005,10.8207 22.01205,10.9427 21.95105,11.0342 L21.20405,12.1552 L21.31955,12.3932 C21.38105,12.5207 21.43705,12.6527 21.48405,12.7887 L21.57055,13.0387 L22.89105,13.3032 C22.99905,13.3242 23.07655,13.4197 23.07655,13.5292 L23.07655,14.4707 Z M23.07155,12.3977 L22.26055,12.2352 C22.26055,12.2352 22.26005,12.2352 22.26005,12.2347 L22.71905,11.5467 C23.02355,11.0902 22.96305,10.4777 22.57505,10.0907 L21.90955,9.4247 C21.53005,9.0462 20.90305,8.9817 20.45355,9.2802 L19.76455,9.7392 L19.76405,9.7392 L19.60205,8.9292 C19.49555,8.3907 19.01955,8.0002 18.47055,8.0002 L17.52855,8.0002 C16.98055,8.0002 16.50505,8.3902 16.39755,8.9277 L16.23505,9.7392 L15.54555,9.2792 C15.09605,8.9822 14.46955,9.0452 14.09005,9.4247 L13.42505,10.0902 C13.03655,10.4777 12.97605,11.0902 13.28055,11.5462 L13.73905,12.2352 L13.73905,12.2352 L12.92855,12.3977 C12.39055,12.5047 12.00005,12.9807 12.00005,13.5292 L12.00005,14.4707 C12.00005,15.0197 12.39055,15.4952 12.92805,15.6022 L13.73905,15.7647 L13.28055,16.4532 C12.97605,16.9097 13.03655,17.5222 13.42455,17.9097 L14.09005,18.5757 C14.46955,18.9547 15.09505,19.0187 15.54655,18.7197 L16.23505,18.2607 L16.39755,19.0722 C16.50505,19.6097 16.98055,20.0002 17.52855,20.0002 L18.47055,20.0002 C19.01955,20.0002 19.49555,19.6092 19.60155,19.0722 L19.76455,18.2607 L19.76455,18.2607 L20.45405,18.7202 C20.90255,19.0187 21.53005,18.9542 21.90955,18.5757 L22.57455,17.9097 C22.96305,17.5222 23.02355,16.9097 22.71905,16.4537 L22.26005,15.7652 C22.26055,15.7652 22.26055,15.7647 22.26055,15.7647 L23.07105,15.6022 C23.60905,15.4952 24.00005,15.0192 24.00005,14.4707 L24.00005,13.5292 C24.00005,12.9807 23.60905,12.5052 23.07155,12.3977 L23.07155,12.3977 Z" transform="translate(-12 -8)"></path>
</svg>