<svg xmlns="http://www.w3.org/2000/svg" width="32" height="32" viewBox="0 0 32 32">
    <g fill="none" fill-rule="evenodd">
        <rect width="10.5" height="13.5" x="3.75" y=".75" stroke="#666" stroke-width="1.5" rx="1"/>
        <path stroke="#666" stroke-width="1.5" d="M18 .75a.25.25 0 0 0-.25.25v13c0 .138.112.25.25.25h10a.25.25 0 0 0 .25-.25V5A4.25 4.25 0 0 0 24 .75h-6z"/>
        <path fill="#E6524B" fill-rule="nonzero" d="M22.753 4.499h.686c.69 0 1.25.56 1.25 1.25v4.502a.75.75 0 0 0 1.5 0V5.748A2.75 2.75 0 0 0 23.439 3h-.686a.75.75 0 1 0 0 1.499z"/>
        <rect width="4.5" height="8.5" x="6.75" y="22.75" stroke="#666" stroke-width="1.5" rx="2.25"/>
        <rect width="4.5" height="8.5" x="20.75" y="22.75" stroke="#666" stroke-width="1.5" rx="2.25"/>
        <rect width="1.5" height="9" x="8.25" y="14" fill="#666" rx=".75"/>
        <rect width="1.5" height="9" x="22.25" y="14" fill="#666" rx=".75"/>
        <rect width="1.5" height="9" x="6.5" y="3" fill="#666" rx=".75"/>
        <rect width="1.5" height="9" x="10" y="3" fill="#666" rx=".75"/>
    </g>
</svg>
