<svg xmlns="http://www.w3.org/2000/svg" width="24" height="24" viewBox="0 0 24 24">
    <g fill="none" fill-rule="evenodd">
        <path fill="#666" d="M22.392 10.875l.563.975-9.743 5.625-.563-.975zM22.392 7.5l.563.975-9.743 5.625-.563-.975zM22.492 4.125l.563.974-9.743 5.625-.562-.974zM23.042 13.875l.562.974-10.392 6-.563-.974zM23.096 17.25l.562.975-5.846 3.375-.562-.974zM19.894 2.25l.563.974-7.145 4.125-.562-.974zM2.464 7.474l6.15 13.19a.561.561 0 1 0 1.017-.475L3.522 7.087A2.248 2.248 0 0 0 1.296 3.2a2.249 2.249 0 1 0 1.168 4.275zm.257-1.22a1.123 1.123 0 1 1-.948-2.036 1.123 1.123 0 0 1 .948 2.037z"/>
        <path fill="#E6524B" d="M7.97 7.474l-6.15 13.19a.561.561 0 1 1-1.017-.475l6.11-13.102A2.248 2.248 0 0 1 9.137 3.2 2.249 2.249 0 1 1 7.97 7.474zm-.257-1.22a1.123 1.123 0 1 0 .948-2.036 1.123 1.123 0 0 0-.948 2.037z"/>
        <path stroke="#666" stroke-width="1.125" d="M14.24 2.813a.938.938 0 0 0-.937.899l-.677 16.5v.038c0 .518.419.938.937.938h8.874l.039-.001a.937.937 0 0 0 .898-.975l-.677-16.5a.938.938 0 0 0-.937-.9h-7.52z"/>
        <rect width="4.875" height="2.25" x="15.563" y=".563" stroke="#666" stroke-width="1.125" rx=".75"/>
        <rect width="4.875" height="2.25" x="15.563" y="21.188" stroke="#666" stroke-width="1.125" rx=".75"/>
    </g>
</svg>
