<svg xmlns="http://www.w3.org/2000/svg" width="36" height="36" viewBox="0 0 36 36">
    <path fill="#333" fill-rule="evenodd" d="M8.46725803,10.1281724 C8.45440378,10.1290359 8.44143314,10.1294746 8.42836004,10.1294746 L5.00789981,10.1294746 C4.69209621,10.1294746 4.43608682,9.87346524 4.43608682,9.55766165 C4.43608682,9.24185805 4.69209621,8.98584865 5.00789981,8.98584865 L7.86175591,8.98584865 L7.86175591,4.99487765 C7.86175591,4.67907406 8.1177653,4.42306466 8.4335689,4.42306466 C8.7493725,4.42306466 9.00538189,4.67907406 9.00538189,4.99487765 L9.00538189,10.1281724 L8.46725803,10.1281724 Z M16.646638,5.94184439 C16.3565812,4.98231081 15.9022237,4.09385826 15.3161992,3.30904638 C15.5318809,3.26665722 15.7827939,3.27470437 16.0745355,3.32945308 C21.9457363,4.52752571 27.8739389,5.66854726 33.7451396,6.86661989 C34.7141727,7.0948242 35.1701883,7.72238606 34.9421805,8.57815222 C32.8331084,15.0819751 30.6670344,21.5857979 28.1589487,27.9755186 C27.5889292,29.4017956 26.9619077,30.8280725 26.0498766,32.0831962 C24.7958337,33.9088307 23.0287733,34.878699 20.8056973,34.9928012 C19.4946525,35.0498522 18.2406096,34.7645969 17.1005706,34.2511372 C13.7374557,32.7107581 10.4313426,31.170379 7.06822767,29.6870509 C6.09919454,29.2306423 5.30116726,28.7742337 4.61714388,27.9755186 C3.5911088,26.7203949 3.19209516,25.2370669 3.30609906,23.6396367 C3.36310101,23.0691259 3.47710491,22.4415641 3.53410686,21.8140022 C3.7051127,21.8710533 3.76211465,21.8710533 3.87611855,21.9281044 C8.32227054,23.7537389 12.7684225,25.5793734 17.2145745,27.3479568 C17.4425823,27.4620589 17.4995843,27.5761611 17.4995843,27.8043654 C17.4995843,28.8883359 17.5565862,29.9152553 18.0696037,30.8851236 C18.6966252,32.1402473 19.8366642,32.653707 21.2047109,32.4825538 C22.6867616,32.2543494 23.5417908,31.3415322 24.2828161,30.2005106 C25.1378454,28.8312848 25.7648668,27.2909057 26.3348863,25.7505266 C28.3299545,20.5588785 30.0970149,15.3101794 31.8070734,10.0044292 C31.9210773,9.71917378 32.0350812,9.37686731 32.1490851,9.03456084 C26.9816027,8.0226603 21.8141204,6.95536524 16.646638,5.94184439 Z M12.8570184,15.7499594 C12.2406903,17.4416438 11.6210262,19.138589 11.0013621,20.8441339 C10.7733543,21.3575936 10.4883446,21.7569512 9.9183251,21.8710533 C9.06329587,21.9851555 8.20826664,21.1864404 8.60728028,20.1024699 C8.98185646,19.0246352 9.39489276,17.9468005 9.78320605,16.8689659 C10.8929604,16.6939643 11.9319361,16.3066233 12.8570184,15.7499594 Z M18.023017,10.3419271 C18.8210535,10.3419271 19.3910796,10.9124379 19.3910796,11.5970508 C19.334077,12.3387148 18.8210535,12.7951235 18.0800196,12.7951235 C17.3389857,12.7380724 16.7689597,12.2246127 16.7689597,11.5399998 C16.7689597,10.8553868 17.3389857,10.3419271 18.023017,10.3419271 Z M18.0800196,21.5809894 C19.7900979,22.1515002 21.5001761,22.722011 23.1532517,23.2925218 C23.7802804,23.5207261 24.1222961,23.9200836 24.1222961,24.4905944 C24.1792987,25.3463605 23.3812622,25.9739224 22.526223,25.688667 C20.7591422,25.1181562 18.9920614,24.4905944 17.2249805,23.9200836 C16.6549545,23.6918793 16.3129388,23.1784196 16.3699414,22.6079088 C16.426944,22.037398 16.8829649,21.5809894 17.452991,21.5239383 C17.6239988,21.4668873 17.8520092,21.5239383 18.0800196,21.5809894 Z M14.830871,16.6175457 C14.830871,15.9329327 15.4008971,15.419473 16.0849284,15.419473 C16.8829649,15.419473 17.452991,15.9899838 17.452991,16.6745967 C17.452991,17.3592097 16.8829649,17.8726694 16.1989336,17.8726694 C15.4008971,17.8726694 14.830871,17.3021586 14.830871,16.6175457 Z M26.744416,15.3053709 C24.9773352,14.8489623 23.2102543,14.3925536 21.4431735,13.8790939 C20.7591422,13.6508896 20.4171266,13.0233278 20.5881344,12.3387148 C20.7591422,11.7682041 21.3861709,11.3688465 22.0702022,11.5399998 C23.4382648,11.8823062 24.8063274,12.2816638 26.1743899,12.6239702 C26.5734082,12.7380724 27.0294291,12.8521745 27.4284473,12.9662767 C27.9984734,13.1374299 28.340489,13.5938386 28.340489,14.1643493 C28.340489,14.7919112 27.770463,15.5906263 26.744416,15.3053709 Z M18.4790379,17.4162608 C18.6500457,16.7886989 19.2200718,16.4463924 19.9041031,16.5604946 C20.3031213,16.6745967 20.7591422,16.7886989 21.2151631,16.9598521 C22.5832257,17.3592097 23.8942856,17.8156183 25.2623482,18.2720269 C25.8893769,18.5002312 26.2313925,18.8995888 26.2313925,19.4700996 C26.2883952,20.2117636 25.6613665,20.7822743 24.9773352,20.7252233 C24.8063274,20.6681722 24.6353195,20.6681722 24.4643117,20.6111211 C22.7542335,20.0406103 21.1011579,19.5271506 19.3910796,18.9566399 C18.6500457,18.7284355 18.2510275,18.1008737 18.4790379,17.4162608 Z M14.2608449,22.6079088 C13.4628084,22.6079088 12.8927824,22.037398 12.8927824,21.3527851 C12.8927824,20.6111211 13.4628084,20.0976614 14.2608449,20.1547125 C14.9448762,20.1547125 15.5149023,20.7252233 15.5149023,21.4098362 C15.5149023,22.0944491 15.0018788,22.6079088 14.2608449,22.6079088 Z M8.4335689,15.8332802 C4.32812216,15.8332802 1,12.5127373 1,8.41664009 C1,4.32054287 4.32812216,1 8.4335689,1 C12.5390156,1 15.8671378,4.32054287 15.8671378,8.41664009 C15.8671378,12.5127373 12.5390156,15.8332802 8.4335689,15.8332802 Z M8.4335689,14.6922586 C11.9074084,14.6922586 14.7235118,11.8825685 14.7235118,8.41664009 C14.7235118,4.95071168 11.9074084,2.14102155 8.4335689,2.14102155 C4.95972935,2.14102155 2.14362598,4.95071168 2.14362598,8.41664009 C2.14362598,11.8825685 4.95972935,14.6922586 8.4335689,14.6922586 Z"></path>
</svg>