<!-- donation -->
<svg xmlns="http://www.w3.org/2000/svg" width="36" height="36" viewBox="0 0 36 36">
    <path fill="#333" fill-rule="evenodd" d="M34.9999867,24.0012228 C34.9999867,24.6516068 34.7936838,25.2698395 34.4034617,25.7891656 C34.4033289,25.7892982 34.4032624,25.7894308 34.403196,25.7895634 L29.6209663,32.1533297 C28.3110821,33.896327 26.2258682,34.9369016 24.0428828,34.9369016 L15.1486755,34.9369016 C13.0527678,34.9369016 10.9670225,34.6499265 8.94929204,34.0838651 L8.35940909,33.918402 C7.8112384,34.5420043 7.00781265,34.9369016 6.11325759,34.9369016 L1.99609915,34.9369016 C1.44600225,34.9369016 0.999986719,34.4917555 0.999986719,33.9427309 L0.999986719,22.0129478 C0.999986719,21.4639895 1.44600225,21.0188434 1.99609915,21.0188434 L6.11325759,21.0188434 C7.12125934,21.0188434 8.01355609,21.5200056 8.55508471,22.2852061 C11.1810302,20.0435657 15.0909558,20.0636519 17.6921928,22.3483818 C18.1759354,22.7731101 18.7971025,23.0070522 19.4413176,23.0070522 L24.0429492,23.0070522 C25.3824571,23.0070522 26.5187838,23.8911793 26.8971166,25.1054371 L29.8248117,21.9686652 C30.3882592,21.3650165 31.1853085,21.0187771 32.0116494,21.0187771 C33.6594161,21.0187771 34.9999867,22.3567345 34.9999867,24.0012228 Z M28.0273325,30.9603514 L32.8094958,24.5964525 C32.8095623,24.5963862 32.8096287,24.5963862 32.8096287,24.5963199 C32.9392156,24.4237636 33.0077619,24.2179954 33.0077619,24.0011566 C33.0077619,23.4529938 32.5609493,23.0069859 32.0116494,23.0069859 C31.7321508,23.0069859 31.4732426,23.1194822 31.2825485,23.3238583 L26.897183,28.0223208 C26.3338683,28.6257705 25.5369518,28.9718774 24.7105445,28.9718774 L16.9636897,28.9718774 C16.4135264,28.9718774 15.9675773,28.5267976 15.9675773,27.977773 C15.9675773,27.4287484 16.4135264,26.9836023 16.9636897,26.9836023 L24.0430157,26.9836023 C24.5922491,26.9836023 25.0391281,26.5375944 25.0391281,25.9894979 C25.0391281,25.4412688 24.5922491,24.9953272 24.0430157,24.9953272 L19.4413841,24.9953272 C18.3123636,24.9953272 17.2239263,24.5853818 16.3762643,23.8409305 C14.5004751,22.1935253 11.6714813,22.1935916 9.79582487,23.8409305 L9.1016613,24.4506779 L9.1016613,31.9544558 C9.1016613,31.9899879 9.10020005,32.0251886 9.09893805,32.0604556 L9.48849592,32.1697037 C11.3307427,32.686577 13.2351593,32.9486265 15.1488083,32.9486265 L24.0429492,32.9486265 C25.602177,32.9486265 27.0917294,32.2053021 28.0273325,30.9603514 Z M6.11332401,32.9485602 C6.66262386,32.9485602 7.10943644,32.5026186 7.10943644,31.9543895 L7.10943644,24.0012228 C7.10943644,23.45306 6.66255744,23.0070522 6.11332401,23.0070522 L2.99221158,23.0070522 L2.99221158,32.9485602 L6.11332401,32.9485602 Z M14.6713828,17.6687485 C12.4651016,15.8102144 10.5597734,14.2051891 9.23151562,12.6437076 C7.70908594,10.8539688 7,9.17093567 7,7.34706433 C7,5.66873684 7.57726953,4.09691618 8.62549219,2.92116569 C9.72996094,1.68231969 11.2611562,1 12.9368516,1 C14.80725,1 16.428625,1.88267446 17.6255312,3.55251852 C17.7153125,3.6777154 17.7993164,3.802846 17.8779414,3.9268499 C17.9565664,3.80291228 18.0405703,3.6777154 18.1303516,3.55251852 C19.3273242,1.88267446 20.9486328,1 22.8190312,1 C24.4947266,1 26.0258555,1.68231969 27.1305234,2.92129825 C28.1786797,4.09698246 28.7559492,5.66880312 28.7559492,7.3471306 C28.7559492,10.2998947 26.8482969,12.5033996 24.786582,14.4447797 C23.7247461,15.4446316 22.5010781,16.4754347 21.084168,17.6690799 C20.2688984,18.3557739 19.4258711,19.0658635 18.5301172,19.8406394 C18.3429844,20.0025536 18.1104297,20.0834776 17.8779414,20.0834776 C17.6453203,20.0834776 17.412832,20.0025536 17.2256328,19.8406394 C16.3298125,19.065731 15.4866523,18.3555088 14.6713828,17.6687485 Z"></path>
</svg>