<svg xmlns="http://www.w3.org/2000/svg" width="16" height="16" viewBox="0 0 16 16">
    <g fill="none" fill-rule="evenodd">
        <path d="M0 0h16v16H0z"/>
        <path fill="#666" fill-rule="nonzero" d="M13 7h.5a2.5 2.5 0 1 1 0 5h-.605c-.486 2.282-2.605 4-5.145 4h-2.5C2.35 16 0 13.761 0 11V6.952C0 6.426.448 6 1 6h11c.552 0 1 .426 1 .952V7zm.002 3.5h.498a1 1 0 0 0 0-2h-.498v2zM1.5 7.5V11c0 1.933 1.679 3.5 3.75 3.5h2.5c2.071 0 3.75-1.567 3.75-3.5V7.5h-10zm4.294-5.532c-.249-.267-.183-.646.148-.847.331-.2.801-.147 1.05.12.616.66.681 1.383.144 2.03-.213.255-.144.48.126.703.289.24.282.622-.015.855a.882.882 0 0 1-1.06-.012c-.713-.592-.966-1.415-.297-2.22.166-.2.151-.363-.096-.629zm-3.5 0c-.249-.267-.183-.646.148-.847.331-.2.801-.147 1.05.12.616.66.681 1.383.144 2.03-.213.255-.144.48.126.703.289.24.282.622-.015.855a.882.882 0 0 1-1.06-.012c-.713-.592-.966-1.415-.297-2.22.166-.2.151-.363-.096-.629zm7 0c-.249-.267-.183-.646.148-.847.331-.2.801-.147 1.05.12.616.66.681 1.383.144 2.03-.213.255-.144.48.126.703.289.24.282.622-.015.855a.882.882 0 0 1-1.06-.012c-.713-.592-.966-1.415-.297-2.22.166-.2.151-.363-.096-.629z"/>
    </g>
</svg>
