<svg xmlns="http://www.w3.org/2000/svg" width="16" height="16" viewBox="0 0 16 16">
    <g fill="none" fill-rule="evenodd">
        <path d="M0 0h16v16H0z"/>
        <path fill="#666" fill-rule="nonzero" d="M7.227 6.5a.727.727 0 0 0-.727.727v6.546c0 .401.326.727.727.727h6.546a.727.727 0 0 0 .727-.727V7.227a.727.727 0 0 0-.727-.727H7.227zM7.2 5h6.6A2.2 2.2 0 0 1 16 7.2v6.6a2.2 2.2 0 0 1-2.2 2.2H7.2A2.2 2.2 0 0 1 5 13.8V7.2A2.2 2.2 0 0 1 7.2 5zM2.933 9.533a.733.733 0 0 1 0 1.467H2.2A2.2 2.2 0 0 1 0 8.8V2.2A2.2 2.2 0 0 1 2.2 0h6.6A2.2 2.2 0 0 1 11 2.2v.733a.733.733 0 1 1-1.467 0V2.2a.733.733 0 0 0-.733-.733H2.2a.733.733 0 0 0-.733.733v6.6c0 .405.328.733.733.733h.733z"/>
    </g>
</svg>
