<svg xmlns="http://www.w3.org/2000/svg" width="32" height="32" viewBox="0 0 32 32">
    <g fill="none" fill-rule="evenodd">
        <rect width="30.5" height="24.5" x=".75" y="3.75" stroke="#666" stroke-width="1.5" rx="1"/>
        <rect width="26" height="1.5" x="3" y="23.5" fill="#E6524B" rx=".75"/>
        <path fill="#666" fill-rule="nonzero" d="M5.345 10.68v1.96c0 .378-.299.617-.673.617-.373 0-.672-.24-.672-.617V7.617C4 7.24 4.299 7 4.672 7c.374 0 .673.24.673.617v1.902h2.653V7.617c0-.377.298-.617.672-.617.374 0 .672.24.672.617v5.023c0 .378-.298.617-.672.617-.374 0-.672-.24-.672-.617v-1.96H5.345zm9.16 2.149l-.336-.82h-2.473l-.329.82c-.142.348-.523.508-.904.377-.35-.116-.53-.479-.403-.762l2.152-4.98A.752.752 0 0 1 12.929 7c.351 0 .605.167.732.465l2.137 4.98c.12.29-.052.638-.396.761-.373.131-.754-.036-.896-.377zm-1.576-3.84l-.77 1.887h1.54l-.77-1.887zm4.692-1.728l2.795 3.528V7.617c0-.377.291-.617.665-.617.374 0 .665.24.665.617v5.038c0 .37-.314.602-.658.602-.261 0-.433-.094-.553-.247l-2.802-3.55v3.18c0 .378-.29.617-.665.617-.373 0-.665-.24-.665-.617V7.617c0-.385.322-.617.65-.617.3 0 .441.102.568.261zm7.428 5.902h-1.51c-.448 0-.747-.29-.747-.726V7.82c0-.435.299-.726.747-.726h1.517c1.928 0 2.944 1.263 2.944 3.027 0 1.764-1.016 3.042-2.951 3.042zm-.105-4.922h-.822v3.775h.822c1.248 0 1.726-.748 1.726-1.895s-.47-1.88-1.726-1.88zM10.179 15.36v5.023c0 .377-.261.617-.635.617-.373 0-.635-.24-.635-.617v-2.715L7.811 19.81c-.15.29-.396.464-.718.464-.35 0-.582-.174-.732-.464l-1.09-2.142v2.715c0 .377-.262.617-.636.617-.373 0-.635-.24-.635-.617V15.36c0-.378.262-.617.635-.617.299 0 .523.181.635.443l1.823 3.462 1.809-3.462c.134-.254.313-.443.642-.443.374 0 .635.24.635.617zm5.064 5.212l-.336-.82h-2.474l-.328.82c-.142.348-.523.508-.905.377-.35-.116-.53-.479-.403-.762l2.152-4.98a.752.752 0 0 1 .717-.464c.351 0 .605.167.733.464l2.136 4.98c.12.29-.052.639-.396.762-.373.13-.754-.036-.896-.377zm-1.577-3.84l-.77 1.887h1.54l-.77-1.887zm5.632 4.174h-1.51c-.448 0-.747-.29-.747-.726v-4.617c0-.435.299-.726.747-.726h1.517c1.928 0 2.944 1.263 2.944 3.027 0 1.764-1.016 3.042-2.951 3.042zm-.105-4.922h-.822v3.775h.822c1.248 0 1.726-.748 1.726-1.895s-.47-1.88-1.726-1.88zm5.183.015v1.292H27c.321 0 .538.276.538.573 0 .29-.217.574-.538.574h-2.623v1.306h2.884c.322 0 .538.283.538.58 0 .291-.216.582-.538.582h-3.467c-.448 0-.747-.29-.747-.726v-4.617c0-.435.299-.726.747-.726h3.303c.321 0 .538.283.538.58 0 .291-.217.582-.538.582h-2.72z"/>
    </g>
</svg>
