<svg xmlns="http://www.w3.org/2000/svg" width="120" height="120" viewBox="0 0 120 120">
    <path fill="#DD5850" fill-rule="evenodd" d="M86.266 75.96c0 3.857.011 10.662-6.439 17.681H33.853c-2.642-1.404-3.415-2.728-5.427-5.746-5.21-7.82-17.444-26.092-17.444-26.092-2.218-3.407-1.43-7.777 1.772-9.78a6.53 6.53 0 0 1 3.428-.955c2.43 0 4.863 1.27 6.369 3.561l7.519 10.243V18.667c0-3.063 2.632-5.544 5.734-5.544 3.103 0 5.734 2.481 5.734 5.544V46.39c0 1.02.688 1.848 1.721 1.848 1.033 0 1.72-.829 1.72-1.848V11.275c0-3.063 2.632-5.545 5.735-5.545 3.102 0 5.733 2.482 5.733 5.545V46.39c0 1.02.69 1.848 1.721 1.848 1.031 0 1.72-.829 1.72-1.848V14.97c0-3.063 2.634-5.545 5.735-5.545 3.1 0 5.733 2.482 5.733 5.545v35.116c0 1.019.976 1.847 2.008 1.847 1.03 0 2.007-.828 2.007-1.847V26.06c0-3.063 2.346-5.544 5.447-5.544 3.1 0 5.448 2.481 5.448 5.544v49.9zm-1.72 35.23c0 1.7-1.38 3.08-3.083 3.08H32.006a3.081 3.081 0 0 1-3.082-3.08v-9.311c0-1.702 1.38-3.08 3.082-3.08h49.457a3.081 3.081 0 0 1 3.082 3.08v9.31zM92 75.96v-49.9c0-6.217-5.058-11.274-11.317-11.274-1.267 0-2.445.207-3.592.59v-.405c0-6.217-5.079-11.275-11.337-11.275-1.988 0-3.85.51-5.477 1.405A11.363 11.363 0 0 0 50.786 0a11.36 11.36 0 0 0-10.904 8.143c-1.264-.484-2.7-.75-4.134-.75-6.259 0-11.412 5.057-11.412 11.274v29.58a12.955 12.955 0 0 0-8.185-2.909c-2.283 0-4.476.62-6.4 1.794l-.013.017-.02.018c-2.782 1.74-4.706 4.486-5.423 7.73-.748 3.385-.059 7.041 1.886 10.03l.022.031.02.03c.123.183 12.286 18.358 17.434 26.083.906 1.36 1.957 2.632 2.978 3.82-2.14 1.609-3.446 4.16-3.446 7.038v9.24c0 4.857 3.779 8.831 8.64 8.831h49.315c4.86 0 8.562-3.974 8.562-8.832v-9.24c0-2.919-1.307-5.504-3.502-7.107.117-.166.252-.328.366-.498 4.887-7.26 5.43-15.26 5.43-18.362zM76.52 108.09a1.544 1.544 0 0 1-1.54-1.54c0-.849.692-1.54 1.54-1.54.85 0 1.542.691 1.542 1.54 0 .847-.693 1.54-1.541 1.54zm0-6.16a4.623 4.623 0 0 0-4.623 4.62 4.623 4.623 0 0 0 9.247 0c0-2.551-2.071-4.62-4.623-4.62z"/>
</svg>
