<svg xmlns="http://www.w3.org/2000/svg" width="32" height="32" viewBox="0 0 32 32">
    <g fill="none" fill-rule="nonzero">
        <g fill="#666">
            <path d="M16.98 11.067l-.022.623-.984.614a1.6 1.6 0 0 0-.24-.183l-1.493-.932-.06-1.76a1.592 1.592 0 0 0-2.34-1.35l-1.553.827-1.554-.827a1.592 1.592 0 0 0-2.339 1.35l-.06 1.76-1.494.932a1.592 1.592 0 0 0 0 2.7l1.493.933.02.555a3.184 3.184 0 0 0-1.446 1.964 3.184 3.184 0 0 1-.104-.705l-.032-.912-.774-.484a3.184 3.184 0 0 1 0-5.402l.774-.483.032-.912a3.184 3.184 0 0 1 4.678-2.701l.806.428.805-.428a3.184 3.184 0 0 1 4.679 2.7l.031.913.774.483c.144.09.278.19.403.297z"/>
            <path d="M10.646 25.53l-1.39.322a3 3 0 0 1-3.598-3.599l.321-1.39-.973-1.042a3 3 0 0 1 1.318-4.916l1.364-.416.416-1.364a3 3 0 0 1 4.916-1.318l1.043.973 1.39-.32a3 3 0 0 1 3.598 3.598l-.321 1.39.973 1.042a3 3 0 0 1-1.318 4.916l-1.364.416-.416 1.364a3 3 0 0 1-4.916 1.318l-1.043-.973zm2.066-.123a1.5 1.5 0 0 0 2.458-.659l.65-2.127 2.127-.65a1.5 1.5 0 0 0 .659-2.458l-1.518-1.626.501-2.167a1.5 1.5 0 0 0-1.799-1.8l-2.167.502-1.626-1.518a1.5 1.5 0 0 0-2.458.659l-.65 2.127-2.127.65a1.5 1.5 0 0 0-.659 2.458l1.518 1.626-.501 2.167a1.5 1.5 0 0 0 1.799 1.8l2.167-.502 1.626 1.518z"/>
        </g>
        <path fill="#666" d="M19.387 21.778c.21-.467.298-.98.258-1.484.167-.023.334-.076.493-.16l1.926-1.025 1.927 1.025a1.472 1.472 0 0 0 2.162-1.248l.076-2.18 1.851-1.156a1.472 1.472 0 0 0 0-2.496l-1.851-1.156-.076-2.18a1.471 1.471 0 0 0-2.162-1.249l-1.927 1.025-1.926-1.025a1.472 1.472 0 0 0-2.163 1.248l-.075 2.18-1.137.71a2.815 2.815 0 0 0-1.226-.082l-1.18.179c.234-.363.546-.67.912-.898l1.187-.741.049-1.399a2.943 2.943 0 0 1 4.324-2.496l1.235.657L23.3 7.17a2.944 2.944 0 0 1 4.324 2.496l.049 1.399 1.187.74a2.942 2.942 0 0 1 0 4.993l-1.187.74-.049 1.399a2.943 2.943 0 0 1-4.324 2.496l-1.236-.657-1.235.657a2.93 2.93 0 0 1-1.442.345zm-.608-6.008a2.999 2.999 0 0 0-.303-1.74 3.6 3.6 0 0 1 7.064-.66 3.597 3.597 0 0 1-6.76 2.4zm3.835.585a2.126 2.126 0 1 0-1.1-4.107 2.126 2.126 0 0 0 1.1 4.107z"/>
        <path fill="#666" d="M29.464 19C29.189 8.89 23.61 1.43 16 1.43 8.389 1.43 2.81 8.89 2.536 19h3.026l.444.442-.252 1.058H2.678l2.63 10h21.384l2.63-10h-3.056c.504-.37.891-.892 1.09-1.5h2.108zm1.529.882a.991.991 0 0 1-.025.368l-2.894 11c-.116.441-.522.75-.987.75H4.913c-.465 0-.87-.309-.987-.75l-2.893-11a.979.979 0 0 1-.026-.368.677.677 0 0 1-.007-.097C1 8.58 7.196 0 16 0s15 8.58 15 19.785a.677.677 0 0 1-.007.097zm-9.867.618l.745-.4.763.4h-1.508z"/>
        <path fill="#E6524B" d="M12.357 22.822a3.667 3.667 0 1 0 0-7.333 3.667 3.667 0 0 0 0 7.333zm0-1.5a2.167 2.167 0 1 1 0-4.333 2.167 2.167 0 0 1 0 4.333z"/>
    </g>
</svg>
