<svg width="36" height="36" viewBox="0 0 36 36">
    <path fill="#333" d="M18.1534972,4.04327338 C18.0549535,3.985654 17.9450465,3.985654 17.8465028,4.04327338 L6.21196218,10.8424564 C6.08751513,10.9151582 6,11.0703475 6,11.2490067 L6,24.7515241 C6,24.9296688 6.08752489,25.0848475 6.21218311,25.1576727 L17.8479526,31.9572747 C17.9454006,32.0142939 18.0550426,32.0142939 18.1534972,31.9567266 L29.7880378,25.1575436 C29.9124751,25.0848475 30,24.9296688 30,24.7515241 L30,11.2490067 C30,11.0703475 29.9124849,10.9151582 29.7877838,10.8423079 L18.1534972,4.04327338 Z M19.1626085,2.31651502 L30.796895,9.11554955 C31.5401853,9.54977895 32,10.3651535 32,11.2490067 L32,24.7515241 C32,25.6348465 31.5401853,26.450221 30.796895,26.8844505 L19.1626085,33.683485 C18.440848,34.105505 17.559152,34.105505 16.8379041,33.683485 L5.20310498,26.8844505 C4.45981473,26.450221 4,25.6348465 4,24.7515241 L4,11.2490067 C4,10.3651535 4.45981473,9.54977895 5.20310498,9.11554955 L16.8373915,2.31651502 C17.559152,1.89449499 18.440848,1.89449499 19.1626085,2.31651502 Z M18.4263161,7.11069791 C18.1619336,6.96313769 17.8380664,6.96313769 17.5736839,7.11069791 L8.43233322,12.2100438 C8.16414984,12.3595948 8,12.6374482 8,12.9367551 L8,23.0636431 C8,23.3625764 8.16417224,23.6404177 8.43244234,23.7900171 L17.5745496,28.8895605 C17.8382377,29.0368377 18.1619776,29.0368377 18.4263161,28.8893021 L27.5676668,23.7899562 C27.8358278,23.6404177 28,23.3625764 28,23.0636431 L28,12.9367551 C28,12.6374482 27.8358502,12.3595948 27.5675413,12.2099738 L18.4263161,7.11069791 Z M18.9134781,6.23738626 L28.0547032,11.3366622 C28.638717,11.6623342 29,12.2738651 29,12.9367551 L29,23.0636431 C29,23.7261349 28.638717,24.3376658 28.0547032,24.6633378 L18.9134781,29.7626137 C18.3463806,30.0791288 17.6536194,30.0791288 17.0869247,29.7626137 L7.94529677,24.6633378 C7.361283,24.3376658 7,23.7261349 7,23.0636431 L7,12.9367551 C7,12.2738651 7.361283,11.6623342 7.94529677,11.3366622 L17.0865219,6.23738626 C17.6536194,5.92087125 18.3463806,5.92087125 18.9134781,6.23738626 Z M16.112793,17.5419922 L18.8271484,17.5419922 C19.5078159,17.5309244 20.0196923,17.3206401 20.362793,16.9111328 C20.689292,16.5126933 20.8525391,16.0699894 20.8525391,15.5830078 C20.8525391,15.1790344 20.7861335,14.8387058 20.6533203,14.5620117 C20.5149733,14.312987 20.3212903,14.1165372 20.0722656,13.9726562 C19.6959617,13.7346993 19.2587916,13.6212565 18.7607422,13.6323242 L16.112793,13.6323242 L16.112793,17.5419922 Z M14.2783203,11.8974609 L18.6611328,11.8974609 C19.1370467,11.8974609 19.596352,11.9417313 20.0390625,12.0302734 C20.481773,12.146485 20.9300108,12.3844383 21.3837891,12.7441406 C21.7656269,13.0153008 22.0755196,13.4026668 22.3134766,13.90625 C22.5625012,14.3932316 22.6870117,14.9687467 22.6870117,15.6328125 C22.6870117,16.5293014 22.3715852,17.3455367 21.7407227,18.081543 C21.0932585,18.8562864 20.1469789,19.2547199 18.9018555,19.2768555 L16.112793,19.2768555 L16.112793,24 L14.2783203,24 L14.2783203,11.8974609 Z"></path>
</svg>