<!-- idus-hexa -->
<svg xmlns="http://www.w3.org/2000/svg" width="36" height="36" viewBox="0 0 36 36">
    <path fill="#333" fill-rule="evenodd" d="M8.03251986,6.34285714 C8.66708875,5.97857143 9.42857143,6.34285714 9.42857143,6.95 L9.42857143,12.9 L9.42857143,22.8571429 L9.42857143,28.8071429 C9.42857143,29.4142857 8.66708875,29.9 8.03251986,29.5357143 L4.22510648,27.4714286 C3.71745136,27.2285714 3.46362381,26.8642857 3.20979625,26.3785714 C2.82905491,26.0142857 3.08288247,25.4071429 3.08288247,24.9214286 L3.08288247,10.9571429 C3.08288247,10.4714286 2.95596869,9.98571429 3.20979625,9.5 C3.59053758,9.01428571 3.59053758,8.65 4.0981927,8.40714286 L8.03251986,6.34285714 Z M31.1942215,8.40714286 C31.6757624,8.65 32.1573034,9.01428571 32.3980738,9.5 C32.6388443,9.98571429 33,10.4714286 33,11.0785714 L33,25.0428571 C33,25.5285714 32.6388443,26.0142857 32.3980738,26.5 C32.1573034,26.9857143 31.5553772,27.35 31.0738363,27.5928571 L19.035313,34.6357143 C18.5537721,34.8785714 18.0722311,35 17.5906902,35 C17.1091493,35 16.6276083,34.8785714 16.1460674,34.6357143 L12.29374,32.3285714 C11.6918138,31.9642857 11.5714286,31.3571429 11.5714286,30.6285714 L11.5714286,21.7642857 L11.5714286,14.2357143 L11.5714286,5.37142857 C11.5714286,4.64285714 11.6918138,4.03571429 12.29374,3.67142857 L16.0256822,1.36428571 C16.5072231,1.12142857 17.1091493,1 17.5906902,1 C18.1926164,1 18.6741573,1.12142857 19.1556982,1.36428571 L31.1942215,8.40714286 Z M19.0714286,27.1036155 C18.4761905,27.4678317 18,26.9822102 18,26.3751833 L18,21.2935861 L18,17.9982128 L18,9.49983682 C18,8.89280997 18.5952381,8.40718848 19.0714286,8.7714046 L25.5,12.5349711 C25.7380952,12.6563765 26.0952381,12.8991872 26.2142857,13.1419979 C26.3333333,13.3848087 26.5714286,13.6276194 26.5714286,13.8704302 L26.5714286,22.1259954 C26.5714286,22.3688061 26.2142857,22.7330222 26.0952381,22.9758329 C25.9761905,23.0972383 25.6190476,23.2186437 25.3809524,23.3400491 C22.2261905,25.2218323 19.0714286,27.1036155 19.0714286,27.1036155 Z"></path>
</svg>