<svg xmlns="http://www.w3.org/2000/svg" width="16" height="16" viewBox="0 0 16 16">
    <g fill="none" fill-rule="evenodd">
        <path d="M0 0h16v16H0z"/>
        <path fill="#666" fill-rule="nonzero" d="M7.364 13.692v-2.025c0-.369.285-.667.636-.667.351 0 .636.298.636.667v2.025a5.73 5.73 0 0 0 5.056-5.056h-2.025C11.298 8.636 11 8.351 11 8c0-.351.298-.636.667-.636h2.025a5.73 5.73 0 0 0-5.056-5.056v1.874a.636.636 0 0 1-1.272 0V2.308a5.73 5.73 0 0 0-5.056 5.056h2.025c.369 0 .667.285.667.636 0 .351-.298.636-.667.636H2.308a5.73 5.73 0 0 0 5.056 5.056zM8 15A7 7 0 1 1 8 1a7 7 0 0 1 0 14z"/>
    </g>
</svg>
