<svg xmlns="http://www.w3.org/2000/svg" width="16" height="16" viewBox="0 0 16 16">
    <g fill="none" fill-rule="evenodd">
        <path d="M0 0h16v16H0z"/>
        <path fill="#666" fill-rule="nonzero" d="M2.182 1.455a.727.727 0 0 0-.727.727v11.545c0 .402.325.728.727.728h11.545a.727.727 0 0 0 .728-.728V2.182a.727.727 0 0 0-.728-.727H2.182zM2.195 0h11.61C15.017 0 16 .985 16 2.2v11.6c0 1.215-.983 2.2-2.195 2.2H2.195A2.198 2.198 0 0 1 0 13.8V2.2C0 .985.983 0 2.195 0z"/>
        <path fill="#666" fill-rule="nonzero" d="M6.8 5.6v2.2h1.718c.818 0 1.082-.555 1.082-1.1s-.264-1.1-1.082-1.1H6.8zm.008 3.658v1.941c0 .49-.352.801-.804.801-.452 0-.804-.311-.804-.8V4.941c0-.565.361-.942.904-.942h2.548C10.459 4 11.2 5.31 11.2 6.629c0 1.32-.741 2.629-2.548 2.629H6.808z"/>
    </g>
</svg>
