<!-- pencil -->
<svg xmlns="http://www.w3.org/2000/svg" width="36" height="36" viewBox="0 0 36 36">
    <path fill="#333" fill-rule="evenodd" d="M33.8275862,30.6344086 L13.8965517,30.6344086 C14.2163009,30.4193548 14.4294671,30.311828 14.7492163,29.9892473 L29.137931,15.4731183 C31.6959248,12.8924731 31.4827586,8.48387097 28.4984326,5.47311828 C26.8996865,3.96774194 24.8746082,3 22.9561129,3 C21.2507837,3 19.6520376,3.64516129 18.5862069,4.72043011 L14.0031348,9.34408602 L14.0031348,9.34408602 L14.0031348,9.34408602 L14.0031348,9.34408602 L4.30407524,19.1290323 C3.87774295,19.5591398 3.55799373,20.0967742 3.34482759,20.7419355 L1.10658307,28.6989247 C1.10658307,28.6989247 1,29.344086 1,29.6666667 C1,31.4946237 2.49216301,33 4.30407524,33 L4.30407524,33 L4.30407524,33 L34.0407524,33 C34.5736677,33 35,32.5698925 35,32.0322581 L35,31.6021505 C34.7868339,31.0645161 34.3605016,30.6344086 33.8275862,30.6344086 L33.8275862,30.6344086 Z M14.6426332,22.1397849 C14.322884,21.6021505 13.8965517,20.9569892 13.3636364,20.5268817 C12.830721,19.9892473 12.0846395,19.4516129 11.4451411,19.1290323 L20.3981191,10.2043011 C21.1442006,10.5268817 21.7836991,10.9569892 22.4231975,11.6021505 C22.9561129,12.1397849 23.2758621,12.6774194 23.5956113,13.2150538 L14.6426332,22.1397849 L14.6426332,22.1397849 Z M23.0626959,18.8064516 L23.0626959,18.8064516 L23.0626959,18.8064516 L15.815047,26.1182796 L15.815047,25.3655914 C15.7084639,24.5053763 15.4952978,23.6451613 15.1755486,22.8924731 L24.0219436,13.9677419 C24.4482759,15.7956989 24.2351097,17.6236559 23.0626959,18.8064516 L23.0626959,18.8064516 Z M19.6520376,6.22580645 C20.3981191,5.47311828 21.5705329,5.04301075 22.7429467,5.04301075 C24.2351097,5.04301075 25.8338558,5.68817204 27.0062696,6.87096774 C28.1786834,7.94623656 28.8181818,9.34408602 28.9247649,10.7419355 C29.031348,12.0322581 28.6050157,13.2150538 27.7523511,14.1827957 L26.153605,15.7956989 L26.153605,15.1505376 C25.9404389,13.3225806 25.0877743,11.6021505 23.8087774,10.2043011 C22.3166144,8.69892473 20.2915361,7.83870968 18.2664577,7.83870968 L19.6520376,6.22580645 L19.6520376,6.22580645 Z M15.0689655,10.8494624 C16.1347962,9.77419355 17.8401254,9.4516129 19.3322884,9.88172043 L10.4858934,18.6989247 C9.63322884,18.3763441 8.67398119,18.1612903 7.82131661,18.1612903 L15.0689655,10.8494624 L15.0689655,10.8494624 Z M4.8369906,21.4946237 C4.94357367,21.2795699 5.05015674,21.0645161 5.15673981,20.8494624 C7.07523511,19.4516129 9.95297806,19.8817204 11.9780564,21.9247312 C14.1097179,24.0752688 14.4294671,27.1935484 12.830721,29.0215054 C12.7241379,29.1290323 12.6175549,29.1290323 12.5109718,29.1290323 L8.99373041,29.9892473 C8.99373041,28.6989247 8.46081505,27.4086022 7.39498433,26.3333333 C6.43573668,25.3655914 5.15673981,24.827957 3.87774295,24.7204301 L4.8369906,21.4946237 L4.8369906,21.4946237 Z M3.98432602,31.3870968 C3.23824451,31.3870968 2.59874608,30.7419355 2.59874608,29.9892473 C2.59874608,29.8817204 2.70532915,29.5591398 2.70532915,29.4516129 L3.6645768,25.9032258 C4.73040752,25.9032258 5.90282132,26.3333333 6.75548589,27.1935484 C7.71473354,28.1612903 8.14106583,29.344086 8.03448276,30.4193548 L4.51724138,31.3870968 C4.51724138,31.2795699 4.19749216,31.2795699 3.98432602,31.3870968 L3.98432602,31.3870968 Z"></path>
</svg>