<svg xmlns="http://www.w3.org/2000/svg" width="20" height="20" viewBox="0 0 20 20">
    <g fill="none" fill-rule="evenodd">
        <path d="M14 6h20v20H14z"/>
        <path d="M0 0h20v20H0z"/>
        <path fill="#333" fill-rule="nonzero" d="M19 0a1 1 0 0 1 1 1v6.25c0 .984-.379 1.879-.998 2.548L19 19.118c0 .487-.448.882-1 .882H2c-.552 0-1-.395-1-.882V9.8c-.62-.67-1-1.565-1-2.55V1a1 1 0 0 1 1-1h18zm-5.813 9.414A3.987 3.987 0 0 1 10 11a3.994 3.994 0 0 1-3.189-1.585A3.742 3.742 0 0 1 3.75 11c-.438 0-.859-.075-1.25-.213V18.5h15v-7.714a3.745 3.745 0 0 1-4.313-1.372zM14.75 13a.75.75 0 0 1 .75.75v2a.75.75 0 1 1-1.5 0v-2a.75.75 0 0 1 .75-.75zM12.5 1.5h-5V7a2.5 2.5 0 0 0 5 0V1.5zm6 0H14v5.75a2.25 2.25 0 1 0 4.5 0V1.5zM6 1.5H1.5v5.75a2.25 2.25 0 1 0 4.5 0V1.5z"/>
    </g>
</svg>
