<!-- profile2 -->
<svg xmlns="http://www.w3.org/2000/svg" width="36" height="36" viewBox="0 0 36 36">
    <path fill="#333" fill-rule="evenodd" d="M34.7082515,29.0338177 C35.7976491,31.8775319 33.7000755,35 30.6761484,35 L5.32333136,35 C2.29940432,35 0.201830654,31.8775319 1.29218158,29.0313335 C3.0317933,24.5058147 6.31036185,21.1359097 10.4550796,19.3111023 C8.4998565,17.3695655 7.28779651,14.6804415 7.28779651,11.7123288 C7.28779651,5.80328532 12.091738,1 17.9997399,1 C23.9092041,1 28.7116833,5.80265195 28.7116833,11.7123288 C28.7116833,14.6808767 27.4998966,17.3700944 25.5447196,19.3115685 C29.6895711,21.1366151 32.9680893,24.5068641 34.7082515,29.0338177 Z M12.6110563,20.9688572 C8.48544524,22.3790306 5.16239896,25.4532936 3.46579433,29.8669315 C2.95112642,31.2103973 3.95877125,32.6712329 5.32333136,32.6712329 L30.6761484,32.6712329 C32.0407085,32.6712329 33.0483534,31.2103973 32.5336855,29.8669315 C30.8372189,25.4536529 27.5145755,22.379531 23.3887238,20.9692015 C21.8050499,21.8942992 19.9635173,22.4246575 17.9997399,22.4246575 C16.036304,22.4246575 14.1948078,21.8941512 12.6110563,20.9688572 Z M17.9997399,3.32876712 C13.3784678,3.32876712 9.61647985,7.08879452 9.61647985,11.7123288 C9.61647985,16.335863 13.3784678,20.0958904 17.9997399,20.0958904 C22.6231078,20.0958904 26.3829999,16.335863 26.3829999,11.7123288 C26.3829999,7.08879452 22.6231078,3.32876712 17.9997399,3.32876712 Z"></path>
</svg>