<svg xmlns="http://www.w3.org/2000/svg" width="20" height="20" viewBox="0 0 20 20">
    <path fill="#333" d="M2,2 L2,18 L18,18 L18,2 L2,2 Z M2,1 L18,1 C18.5522847,1 19,1.44771525 19,2 L19,18 C19,18.5522847 18.5522847,19 18,19 L2,19 C1.44771525,19 1,18.5522847 1,18 L1,2 C1,1.44771525 1.44771525,1 2,1 Z M9.408,12.772 L9.408,14.272 L11.016,14.272 L11.016,12.772 L9.408,12.772 Z M7.5,8.428 L8.868,8.428 C8.868,7.88399728 8.98599882,7.45000162 9.222,7.126 C9.45800118,6.80199838 9.82399752,6.64 10.32,6.64 C10.4240005,6.64 10.5439993,6.66399976 10.68,6.712 C10.8160007,6.76000024 10.9439994,6.83599948 11.064,6.94 C11.1840006,7.04400052 11.2859996,7.18199914 11.37,7.354 C11.4540004,7.52600086 11.496,7.7319988 11.496,7.972 C11.496,8.172001 11.4700003,8.34399928 11.418,8.488 C11.3659997,8.63200072 11.2940005,8.76199942 11.202,8.878 C11.1099995,8.99400058 11.0060006,9.09999952 10.89,9.196 C10.7739994,9.29200048 10.6520006,9.39599944 10.524,9.508 C10.3639992,9.64400068 10.2260006,9.7819993 10.11,9.922 C9.99399942,10.0620007 9.8960004,10.2239991 9.816,10.408 C9.7359996,10.5920009 9.67800018,10.8059988 9.642,11.05 C9.60599982,11.2940012 9.588,11.5919982 9.588,11.944 L10.884,11.944 C10.884,11.6559986 10.9099997,11.412001 10.962,11.212 C11.0140003,11.011999 11.0879995,10.8380007 11.184,10.69 C11.2800005,10.5419993 11.3919994,10.4080006 11.52,10.288 C11.6480006,10.1679994 11.7879992,10.0440006 11.94,9.916 C12.0680006,9.80399944 12.1959994,9.69000058 12.324,9.574 C12.4520006,9.45799942 12.5659995,9.32600074 12.666,9.178 C12.7660005,9.02999926 12.8459997,8.85400102 12.906,8.65 C12.9660003,8.44599898 12.996,8.2040014 12.996,7.924 C12.996,7.53999808 12.9280007,7.19600152 12.792,6.892 C12.6559993,6.58799848 12.4700012,6.33400102 12.234,6.13 C11.9979988,5.92599898 11.7220016,5.77000054 11.406,5.662 C11.0899984,5.55399946 10.7480018,5.5 10.38,5.5 C9.9399978,5.5 9.54200178,5.5699993 9.186,5.71 C8.82999822,5.8500007 8.52600126,6.04799872 8.274,6.304 C8.02199874,6.56000128 7.83000066,6.8679982 7.698,7.228 C7.56599934,7.5880018 7.5,7.9879978 7.5,8.428 Z"></path>
</svg>