<svg width="24" height="24" viewBox="0 0 24 24">
    <path fill="#333" d="M12.0004808,18.9979673 L16.8490074,21.6619976 C17.9135776,22.2469273 18.6128842,21.7541239 18.4177417,20.5650208 L17.4780094,14.8387522 L21.4151642,10.8278186 C22.2618052,9.96531229 21.984359,9.1110918 20.7863491,8.92915642 L15.3857797,8.10900078 L12.93449,2.91804648 C12.6801475,2.37944005 12.330996,2.10639269 12,2.09661066 C12,2.09661066 12.0001603,7.73039622 12.0004808,18.9979673 Z M7.68025385,22.6227607 C5.82017706,23.6447827 4.15748693,22.4803076 4.50092833,20.3875438 L5.35063872,15.2098245 L1.80295955,11.595665 C0.327085562,10.0921344 0.968499884,8.16134627 3.04987991,7.84525819 L7.87278825,7.11282885 L10.0746607,2.45005088 C10.9865079,0.519084892 13.0121546,0.514216054 13.9263009,2.45005088 L16.1281734,7.11282885 L20.9510818,7.84525819 C23.0341174,8.16159769 23.6707179,10.0953518 22.1980021,11.595665 L18.6503229,15.2098245 L19.5000333,20.3875438 C19.8438623,22.4826693 18.1836785,23.6463728 16.3207078,22.6227607 L12.0004808,20.2490055 L7.68025385,22.6227607 Z"></path>
</svg>