<svg xmlns="http://www.w3.org/2000/svg" width="60" height="60" viewBox="0 0 60 60">
    <g fill="none" fill-rule="evenodd">
        <path fill="#DD5851" d="M38.767 18.814c.383-1.76.469-3.345.469-6.162C39.236 5.926 34.336 0 30 0c-3.062 0-5.586 2.503-5.625 5.582-.042 3.774-1.208 10.297-7.5 13.604-.461.243-1.782.894-1.974.979-.886-.766-2.25-1.165-3.652-1.165H5.625C2.523 19 0 21.273 0 24.375v30A5.63 5.63 0 0 0 5.625 60h5.624c2.232 0 4.099-1.348 5.004-3.237l.535.139c1.168.29 3.246.787 7.69 1.81.953.216 5.983 1.288 11.2 1.288h10.248c3.126 0 5.376-1.201 6.716-3.614.02-.037.453-.879.805-2.018.263-.857.362-2.069.043-3.3 2.013-1.384 2.66-3.475 3.084-4.837.705-2.234.493-3.91.001-5.112 1.133-1.07 2.1-2.7 2.508-5.185a7.047 7.047 0 0 0-.73-4.449c1.061-1.192 1.546-2.692 1.6-4.08l.022-.391c.014-.248.025-.4.025-.94 0-2.368-1.638-5.388-5.318-6.44-2.341-.615-7.855-.608-15.915-.82z"/>
        <path fill="#FFF" d="M13 55.055C13 56.13 12.105 57 10.999 57H5c-1.105 0-2-.87-2-1.945v-31.11C3 22.871 3.895 22 5 22H11c1.106 0 2.001.87 2.001 1.945v31.11zM56.957 27.174c-.04.953-.433 2.826-3.775 2.826h-3.819a.959.959 0 0 0-.954.964.96.96 0 0 0 .954.965h3.7c2.864 0 3.24 2.4 3.054 3.556-.234 1.44-.903 4.159-4.127 4.159h-4.535a.957.957 0 0 0-.955.964c0 .532.427.963.955.963h3.758c3.222 0 2.94 2.483 2.476 3.964-.608 1.945-.981 3.75-5.04 3.75h-3.115a.958.958 0 0 0-.954.964c0 .533.426.964.954.964h2.994c2.088 0 2.187 1.998 1.97 2.713-.24.784-.521 1.364-.534 1.39-.578 1.05-1.506 1.684-3.475 1.684H36.054c-5.244 0-10.444-1.201-10.578-1.233-7.93-1.844-8.348-1.988-8.846-2.132 0 0-1.615-.274-1.615-1.698L15 25.301c0-.904.57-1.721 1.516-2.01.117-.046.278-.095.393-.145C25.631 19.5 28.286 11.498 28.363 4.93 28.375 4.005 29.08 3 30.273 3c2.018 0 5.585 4.093 5.585 9.157 0 4.572-.18 5.364-1.768 10.129 19.092 0 18.958.277 20.643.722C56.821 23.612 57 25.36 57 25.962c0 .662-.019.566-.043 1.212"/>
        <path fill="#DD5851" d="M8 49c-1.656 0-3 1.344-3 3a3 3 0 0 0 6 0 3 3 0 0 0-3-3"/>
        <path fill="#FFF" d="M8 53c-.55 0-1-.45-1-1s.45-1 1-1 1 .45 1 1-.45 1-1 1"/>
    </g>
</svg>
