<svg xmlns="http://www.w3.org/2000/svg" width="16" height="16" viewBox="0 0 16 16">
    <g fill="none" fill-rule="evenodd">
        <path d="M0 0h16v16H0z"/>
        <circle cx="8" cy="14" r="1" fill="#666"/>
        <path fill="#666" fill-rule="nonzero" d="M3.612 9.108c2.56-2.355 6.278-2.355 8.839 0 .293.27.728.226.972-.098a.819.819 0 0 0-.089-1.074C10.262 5.11 5.8 5.11 2.728 7.936a.819.819 0 0 0-.089 1.074c.244.324.68.368.973.098zM1.147 6.387c3.916-3.815 9.79-3.815 13.706 0a.646.646 0 0 0 .974-.068.82.82 0 0 0-.06-1.076C11.328.919 4.67.919.233 5.243a.82.82 0 0 0-.061 1.076.646.646 0 0 0 .974.068zM6 11.859a3.19 3.19 0 0 1 4 0c.31.244.742.163.963-.18.22-.343.147-.82-.163-1.063-1.677-1.316-3.923-1.316-5.6 0-.31.243-.383.72-.163 1.063.221.343.652.424.963.18z"/>
    </g>
</svg>
