<?xml version="1.0" standalone="no"?>
<!DOCTYPE svg PUBLIC "-//W3C//DTD SVG 1.1//EN" "http://www.w3.org/Graphics/SVG/1.1/DTD/svg11.dtd" >
<svg xmlns="http://www.w3.org/2000/svg">
<metadata>Generated by IcoMoon</metadata>
<defs>
<font id="iconpack-idus" horiz-adv-x="1024">
<font-face units-per-em="1024" ascent="960" descent="-64" />
<missing-glyph horiz-adv-x="1024" />
<glyph unicode="&#x20;" horiz-adv-x="512" d="" />
<glyph unicode="&#xe900;" glyph-name="advert" d="M97.524 805.926v-687.407h828.952v687.407h-828.952zM97.524 874.667h828.952c38.151 0 69.079-30.776 69.079-68.741v-687.407c0-37.964-30.928-68.741-69.079-68.741h-828.952c-38.151 0-69.079 30.776-69.079 68.741v687.407c0 37.964 30.928 68.741 69.079 68.741zM457.669 256h66.803l-151.954 415.969h-53.041l-151.954-415.969h67.089l32.111 93.008h158.549l32.398-93.008zM285.072 404.927l60.495 181.737h1.147l60.495-181.737h-122.137zM550.849 256h141.92c31.347 0 57.819 6.847 79.418 20.542 21.79 12.744 38.801 28.91 51.034 48.501 4.587 7.418 8.506 14.55 11.755 21.398 3.058 7.037 5.352 15.026 6.881 23.965 3.249 17.689 4.874 48.881 4.874 93.579 0 42.035-1.051 71.61-3.154 88.729-2.676 17.118-9.079 33.475-19.209 49.072-28.289 46.409-70.721 69.804-127.298 70.184h-146.22v-415.969zM614.211 612.341h75.69c32.111 0.761 56.959-10.936 74.544-35.092 8.601-9.7 14.049-22.348 16.342-37.945 1.72-15.597 2.58-41.464 2.58-77.602 0-37.089-0.86-62.386-2.58-75.89-1.911-13.695-6.403-25.011-13.475-33.951-16.056-24.156-41.859-36.233-77.411-36.233h-75.69v296.713z" />
<glyph unicode="&#xe901;" glyph-name="bubble-left" d="M105.813 491.928c0-106.92 70.555-201.184 177.924-257.158-0.203-48.369-34.199-98.358-49.14-124.628-1.155-2.824-1.841-5.972-1.841-9.262 0-12.967 6.131-16.506 20.853-11.477s180.073 97.555 180.073 97.555c0 0 51.526-5.92 78.35-5.92 224.335 0 406.22 139.201 406.22 310.89s-181.885 310.89-406.22 310.89c-224.36 0-406.22-139.201-406.22-310.89zM437.318 114.429c-20.683-11.505-41.466-23.012-61.020-33.762-1.218-0.67-1.218-0.67-2.437-1.339-60.166-33.056-87.797-47.768-99.651-51.817-53.121-18.145-105.927 11.24-105.927 73.37 0 11.921 2.366 23.545 6.753 34.268l1.605 3.923 2.093 3.68c0.238 0.418 15.901 26.919 20.518 35.404 4.719 8.671 8.615 16.686 11.678 24.040-105.174 69.682-169.59 174.153-169.59 289.732 0 212.388 214.042 376.207 470.694 376.207 256.635 0 470.694-163.824 470.694-376.207s-214.059-376.207-470.694-376.207c-9.875 0-21.914 0.59-35.992 1.638-6.102 0.454-12.472 0.988-19.020 1.585-3.341 0.305-6.652 0.618-9.907 0.938-3.125-1.741-6.1-3.397-9.796-5.453zM337.92 450.107c32.047 0 58.027 26.319 58.027 58.785s-25.979 58.785-58.027 58.785c-32.047 0-58.027-26.319-58.027-58.785s25.979-58.785 58.027-58.785zM512 450.107c32.047 0 58.027 26.319 58.027 58.785s-25.979 58.785-58.027 58.785c-32.047 0-58.027-26.319-58.027-58.785s25.979-58.785 58.027-58.785zM686.080 450.107c32.047 0 58.027 26.319 58.027 58.785s-25.979 58.785-58.027 58.785c-32.047 0-58.027-26.319-58.027-58.785s25.979-58.785 58.027-58.785z" />
<glyph unicode="&#xe902;" glyph-name="bubble-plus" d="M512 874.667c-267.467 0-483.556-163.048-483.556-365.714 0-126.476 84.622-236.19 211.556-303.238v-1.524c0-54.857-40.8-112.762-58.933-144.762v0c-1.511-3.048-1.511-7.619-1.511-10.667 0-15.238 12.089-27.429 27.2-27.429h7.556c95.2 15.238 182.844 103.619 204 128 30.222-4.571 61.956-7.619 93.689-7.619 267.467 0 483.556 163.048 483.556 365.714s-216.089 367.238-483.556 367.238v0zM512 188.952c-28.711 0-57.422 1.524-86.133 6.095l-25.689 3.048-16.622-19.81c-13.6-16.762-72.533-76.19-139.022-102.095 19.644 35.048 39.289 77.714 40.8 123.429v32l-24.178 12.19c-117.867 60.952-187.378 158.476-187.378 262.095 0 176.762 196.444 320 438.222 320s438.222-143.238 438.222-320c0-173.714-196.444-316.952-438.222-316.952v0zM663.111 539.429h-120.889v121.905c0 16.762-13.6 30.476-30.222 30.476s-30.222-13.714-30.222-30.476v-121.905h-120.889c-16.622 0-30.222-13.714-30.222-30.476s13.6-30.476 30.222-30.476h120.889v-121.905c0-16.762 13.6-30.476 30.222-30.476s30.222 13.714 30.222 30.476v121.905h120.889c16.622 0 30.222 13.714 30.222 30.476s-13.6 30.476-30.222 30.476v0z" />
<glyph unicode="&#xe903;" glyph-name="camera" d="M792.092 683.536l-41.528 105.402c-13.843 34.37-46.142 57.284-85.362 57.284h-302.229c-36.913 0-71.52-22.914-85.362-57.284l-41.528-105.402-131.504-22.914c-43.835-6.874-76.134-45.827-76.134-89.363v-458.272c0-50.41 41.528-91.654 89.977-91.654h786.719c50.756 0 89.977 41.244 89.977 91.654v458.272c4.614 45.827-27.685 82.489-71.52 89.363l-131.504 22.914zM921.884 112.912c0-13.702-9.185-22.837-20.666-22.837h-783.027c-11.481 0-20.666 9.135-20.666 22.837v456.749c0 11.419 6.889 20.554 18.37 22.837l169.924 29.689 13.778 36.54 41.333 105.052c4.593 9.135 11.481 13.702 20.666 13.702h300.811c9.185 0 16.074-4.567 20.666-13.702l41.333-105.052 13.778-36.54 169.924-29.689c11.481-2.284 18.37-11.419 18.37-22.837v-456.749h-4.593zM284.444 391.111c0-125.156 102.4-227.556 227.556-227.556s227.556 102.4 227.556 227.556c0 125.156-102.4 227.556-227.556 227.556s-227.556-102.4-227.556-227.556zM341.333 391.111c0 95.086 75.581 170.667 170.667 170.667s170.667-75.581 170.667-170.667c0-95.086-75.581-170.667-170.667-170.667s-170.667 75.581-170.667 170.667z" />
<glyph unicode="&#xe904;" glyph-name="cart" d="M823.454 176.919c-32.95-29.458-65.899-58.883-98.899-88.292v542.488l199.332 164.109v-31.499c-0.017-173.596-0.017-322.011 0.15-495.28-0.417-0.947-0.8-1.813-1.217-2.76-33.15-29.556-66.266-59.161-99.366-88.766zM697.158 660.573h-254.259l207.052 170.51c34.817 0 69.634 0.049 104.452 0.049l149.857-0.016-207.102-170.542zM684.268 65.048c-98.382-0.147-196.747-0.18-295.096-0.18h-285.641c-1.901 0-3.435 1.551-3.435 3.462v98.726c-0.017 159.52-0.017 297.942-0.117 453.445h584.289v-555.454zM341.532 830.936c81.724 0.098 163.464 0.082 245.188 0.114l-207.036-170.477h-254.126c29.898 23.563 59.78 47.142 89.644 70.738 42.087 33.23 84.175 66.46 126.329 99.625zM995.389 866.713c0 19.040-14.741 34.798-33.617 35.924l-3.285 0.196c-2.868 0.147-5.036 0.261-7.22 0.261l-196.864 0.016c-139.252 0-278.521-0.033-417.723-0.196-12.84-0.016-25.329-4.344-35.434-12.312-43.438-34.161-86.81-68.436-130.181-102.662-40.57-32.054-81.157-64.092-121.793-96.081-13.84-10.908-20.844-25.539-20.827-43.436 0.133-168.975 0.133-312.393 0.133-481.368l0.017-126.813c0-3.086 0.167-6.189 0.384-9.602 1.301-21.375 18.576-37.753 39.469-37.753h320.725c104.635 0 209.303 0.016 314.038 0.18 6.67 0.033 23.578 1.372 36.852 13.194 43.688 38.88 87.276 77.858 130.881 116.836 34.5 30.846 69.017 61.724 103.601 92.538 13.373 11.92 21.027 29.082 21.010 47.061-0.167 175.164-0.167 325.522-0.167 501.028v102.988zM493.974 496.236c11.122 0 20.143 6.728 20.143 15.023v30.062c0 8.295-9.021 15.023-20.143 15.023h-201.483c-11.122 0-20.143-6.728-20.143-15.023v-30.062c0-8.295 9.021-15.023 20.143-15.023h201.483z" />
<glyph unicode="&#xe905;" glyph-name="category" d="M126.906 833.094v-280.068h280.068v280.068h-280.068zM91.897 903.111h350.085c19.335 0 35.009-15.674 35.009-35.009v-350.085c0-19.335-15.674-35.009-35.009-35.009h-350.085c-19.335 0-35.009 15.674-35.009 35.009v350.085c0 19.335 15.674 35.009 35.009 35.009zM582.017 903.111h350.085c19.335 0 35.009-15.674 35.009-35.009v-350.085c0-19.335-15.674-35.009-35.009-35.009h-350.085c-19.335 0-35.009 15.674-35.009 35.009v350.085c0 19.335 15.674 35.009 35.009 35.009zM617.026 833.094v-280.068h280.068v280.068h-280.068zM91.897 412.991h350.085c19.335 0 35.009-15.674 35.009-35.009v-350.085c0-19.335-15.674-35.009-35.009-35.009h-350.085c-19.335 0-35.009 15.674-35.009 35.009v350.085c0 19.335 15.674 35.009 35.009 35.009zM126.906 342.974v-280.068h280.068v280.068h-280.068zM582.017 412.991h350.085c19.335 0 35.009-15.674 35.009-35.009v-350.085c0-19.335-15.674-35.009-35.009-35.009h-350.085c-19.335 0-35.009 15.674-35.009 35.009v350.085c0 19.335 15.674 35.009 35.009 35.009zM617.026 342.974v-280.068h280.068v280.068h-280.068z" />
<glyph unicode="&#xe906;" glyph-name="current-list" d="M240.846 671.91c-0.366-0.025-0.735-0.037-1.106-0.037h-97.293c-8.983 0-16.265 7.282-16.265 16.265s7.282 16.265 16.265 16.265h81.176v113.521c0 8.983 7.282 16.265 16.265 16.265s16.265-7.282 16.265-16.265v-146.014h-15.307zM473.504 790.988c-8.251 27.293-21.174 52.565-37.844 74.888 6.135 1.206 13.272 0.977 21.57-0.58 167.003-34.079 335.627-66.534 502.631-100.613 27.564-6.491 40.535-24.342 34.049-48.684-59.991-184.998-121.604-369.995-192.945-551.747-16.214-40.57-34.049-81.139-59.991-116.841-35.671-51.929-85.934-79.517-149.168-82.762-37.292-1.623-72.962 6.491-105.39 21.096-95.662 43.815-189.702 87.63-285.364 129.823-27.564 12.982-50.263 25.965-69.72 48.684-29.185 35.701-40.535 77.894-37.292 123.332 1.621 16.228 4.864 34.079 6.486 51.929 4.864-1.623 6.486-1.623 9.728-3.246 126.468-51.929 252.937-103.858 379.405-154.165 6.486-3.246 8.107-6.491 8.107-12.982 0-30.833 1.621-60.043 16.214-87.63 17.835-35.701 50.263-50.306 89.176-45.438 42.156 6.491 66.477 32.456 87.555 64.911 24.321 38.947 42.156 82.762 58.37 126.577 56.749 147.674 107.012 296.97 155.653 447.889 3.243 8.114 6.486 17.851 9.728 27.587-146.986 28.783-293.972 59.142-440.958 87.971zM365.711 512.001c-17.531-48.119-35.157-96.388-52.783-144.901-6.486-14.605-14.592-25.965-30.806-29.21-24.321-3.246-48.642 19.473-37.292 50.306 10.655 30.658 22.403 61.317 33.449 91.975 31.566 4.978 61.119 15.996 87.433 31.83zM512.655 665.83c22.7 0 38.914-16.228 38.914-35.701-1.621-21.096-16.214-34.079-37.292-34.079-21.078 1.623-37.292 16.228-37.292 35.701s16.214 34.079 35.671 34.079zM514.276 346.141c48.642-16.228 97.284-32.456 144.305-48.684 17.835-6.491 27.564-17.851 27.564-34.079 1.621-24.342-21.078-42.192-45.399-34.079-50.264 16.228-100.527 34.079-150.791 50.306-16.214 6.491-25.943 21.096-24.321 37.324s14.593 29.21 30.807 30.833c4.864 1.623 11.35 0 17.835-1.623zM421.856 487.323c0 19.473 16.214 34.079 35.671 34.079 22.7 0 38.914-16.228 38.914-35.701s-16.214-34.079-35.671-34.079c-22.7 0-38.914 16.228-38.914 35.701zM760.73 524.647c-50.264 12.982-100.527 25.965-150.791 40.57-19.457 6.491-29.185 24.342-24.321 43.815 4.864 16.228 22.7 27.587 42.157 22.719 38.914-9.737 77.828-21.096 116.741-30.833 11.35-3.246 24.321-6.491 35.671-9.737 16.214-4.868 25.943-17.851 25.943-34.079 0-17.851-16.214-40.57-45.399-32.456zM525.626 464.604c4.864 17.851 21.078 27.587 40.535 24.342 11.35-3.246 24.321-6.491 37.292-11.36 38.914-11.36 76.206-24.342 115.12-37.324 17.835-6.491 27.564-17.851 27.564-34.079 1.621-21.096-16.214-37.324-35.671-35.701-4.864 1.623-9.728 1.623-14.593 3.246-48.642 16.228-95.663 30.833-144.305 47.061-21.078 6.491-32.428 24.342-25.943 43.815zM405.642 316.931c-22.7 0-38.914 16.228-38.914 35.701 0 21.096 16.214 35.701 38.914 34.079 19.457 0 35.671-16.228 35.671-35.701s-14.593-34.079-35.671-34.079zM239.888 509.631c-116.777 0-211.444 94.451-211.444 210.962s94.667 210.962 211.444 210.962c116.777 0 211.444-94.451 211.444-210.962s-94.667-210.962-211.444-210.962zM239.888 542.087c98.811 0 178.914 79.92 178.914 178.506s-80.102 178.506-178.914 178.506c-98.811 0-178.914-79.92-178.914-178.506s80.102-178.506 178.914-178.506z" />
<glyph unicode="&#xe907;" glyph-name="diamond" d="M985.605 670.244c14.008-20.993 13.162-48.403-2.131-68.503l-423.023-556.496c-11.439-15.053-29.391-23.911-48.447-23.911-19.070 0-37.022 8.859-48.447 23.911l-423.023 556.496c-15.293 20.1-16.154 47.51-2.146 68.503l118.442 177.533c11.197 16.765 30.222 26.889 50.577 26.889h609.163c20.37 0 39.38-10.124 50.592-26.889l118.442-177.533zM545.113 124.542l374.804 493.070h-68.136c-11.152 0-20.189 8.903-20.189 19.876s9.037 19.876 20.189 19.876h69.995l-102.635 153.816-112.125-153.816h18.617c11.137 0 20.158-8.903 20.158-19.876s-9.021-19.876-20.158-19.876h-42.599l-137.92-493.070zM104.077 617.613l374.804-493.070-137.92 493.070h-236.883zM207.407 815.022l-105.189-157.657h214.761l-63.104 86.608c-6.513 8.903-4.443 21.336 4.594 27.738 9.067 6.417 21.654 4.377 28.167-4.556l69.693-95.601 104.585 143.468h-253.506zM563.065 815.022l104.6-143.468 104.585 143.468h-209.185zM641.175 617.613h-258.372l129.201-461.819 129.171 461.819zM513.394 815.022h-2.796l-114.951-157.657h232.698l-114.951 157.657z" />
<glyph unicode="&#xe908;" glyph-name="document" d="M314.065 389.357c-0.644-21.003 17.051-37.524 41.051-38.341 21.858-0.73 38.7 14.836 39.135 36.187 0.401 20.604-16.877 37.663-38.943 38.428-23.251 0.799-40.563-14.436-41.242-36.274zM471.041 724.541c-21.509 0.452-38.769-15.913-38.804-36.795-0.035-20.777 17.765-37.299 40.72-37.802 22.345-0.486 38.769 14.419 39.483 35.857 0.731 21.733-16.894 38.237-41.399 38.741zM373.822 533.045c-0.348-21.455 17.765-38.063 42.078-38.584 20.36-0.417 37.794 16.243 38.316 36.673 0.557 21.142-17.782 37.907-42.2 38.549-20.517 0.539-37.846-16.087-38.195-36.638zM737.497 572.463c30.549-7.974 49.045 14.871 48.923 35.457-0.331 17.372-10.467 30.819-28.128 36.291-12.697 3.926-25.62 7.157-38.456 10.649-41.573 11.275-82.99 23.105-124.772 33.546-20.935 5.229-39.971-6.445-44.917-25.016-5.556-20.864 4.633-40.704 26.073-46.801 53.608-15.27 107.356-30.037 161.277-44.126zM484.556 509.627c-6.253-21.090 4.511-40.078 27.553-47.687 51.396-16.955 102.862-33.755 154.363-50.467 4.772-1.546 9.858-2.588 14.874-2.919 21.3-1.407 39.274 16.417 38.386 37.733-0.714 17.841-10.38 29.846-29.556 36.152-41.19 13.568-82.415 27.032-123.675 40.408-13.533 4.395-26.996 9.346-40.877 12.3-18.287 3.891-35.774-7.696-41.068-25.52zM473.775 381.887c-6.148 1.98-13.15 3.075-19.472 2.311-18.27-2.172-31.21-15.653-32.935-32.712-1.689-16.764 8.029-33.286 25.393-39.157 53.922-18.224 107.948-36.204 162.27-53.194 26.421-8.252 50.299 10.024 49.515 36.030-0.522 17.112-10.276 29.585-28.755 35.7-51.954 17.181-103.942 34.258-156.018 51.023zM959.349 822.834c-179.983 35.7-359.966 71.435-539.948 107.118-27.971 5.542-42.827-3.005-52.72-30.054-44.081-120.669-88.197-241.338-132.279-362.007-14.665-40.113-29.19-80.295-43.977-120.374-12.47-33.841 13.951-58.024 39.623-53.663 17.713 3.023 26.491 15.34 32.273 31.253 48.314 132.934 96.836 265.781 145.324 398.663 7.019 19.249 14.142 38.463 21.335 57.989 160.511-31.896 320.221-63.635 481.046-95.6-3.483-10.701-6.583-20.326-9.736-29.915-52.894-160.817-106.624-321.355-167.478-479.392-17.974-46.68-36.226-93.273-62.752-136.026-21.98-35.44-49.568-62.819-93.701-69.021-41.904-5.889-77.277 10.927-96.314 48.625-14.839 29.359-17.852 61.168-17.312 93.377 0.139 7.574-1.916 10.927-9.039 13.794-136.093 54.636-272.064 109.603-408.070 164.482-2.839 1.129-5.73 2.102-10.136 3.718-2.403-19.509-5.695-37.629-6.671-55.87-2.63-49.094 8.43-94.315 40.807-132.847 20.081-23.87 45.927-38.966 74.16-51.579 102.113-45.585 203.774-92.213 305.73-138.146 35.617-16.052 72.279-24.912 112.337-22.532 68.256 4.083 121.097 33.147 160.076 88.738 27.118 38.654 46.99 81.042 64.302 124.647 76.999 193.946 142.189 392.009 206.473 590.385 9.057 27.97-3.814 48.365-33.353 54.237z" />
<glyph unicode="&#xe909;" glyph-name="donation" d="M995.555 277.299c0-18.5-5.868-36.085-16.968-50.857-0.004-0.004-0.006-0.008-0.008-0.011l-136.028-181.014c-37.259-49.579-96.572-79.177-158.665-79.177h-252.991c-59.617 0-118.945 8.163-176.338 24.264l-16.779 4.707c-15.592-17.738-38.445-28.971-63.891-28.971h-117.11c-15.647 0-28.334 12.662-28.334 28.279v339.336c0 15.615 12.687 28.277 28.334 28.277h117.11c28.672 0 54.053-14.255 69.456-36.021 74.694 63.762 185.909 63.191 259.9-1.797 13.76-12.081 31.429-18.736 49.753-18.736h130.891c38.102 0 70.424-25.149 81.185-59.687l83.277 89.224c16.027 17.17 38.699 27.019 62.203 27.019 46.87 0 85.002-38.057 85.002-84.834zM797.222 79.35l136.026 181.018c0.002 0.002 0.004 0.002 0.004 0.004 3.686 4.908 5.636 10.761 5.636 16.929 0 15.592-12.709 28.279-28.334 28.279-7.95 0-15.315-3.2-20.739-9.013l-124.739-133.645c-16.023-17.165-38.691-27.010-62.198-27.010h-220.355c-15.649 0-28.334 12.66-28.334 28.277s12.685 28.279 28.334 28.279h201.367c15.623 0 28.334 12.686 28.334 28.277 0 15.594-12.711 28.279-28.334 28.279h-130.891c-32.114 0-63.074 11.661-87.186 32.836-53.356 46.86-133.825 46.858-187.177 0l-19.745-17.344v-213.441c0-1.011-0.042-2.012-0.077-3.015l11.081-3.108c52.402-14.702 106.572-22.156 161.004-22.156h252.989c44.351 0 86.721 21.143 113.334 56.555zM173.89 22.797c15.625 0 28.334 12.685 28.334 28.279v226.223c0 15.592-12.711 28.279-28.334 28.279h-88.778v-282.781h88.778zM417.319 457.422c-62.756 52.865-116.952 98.519-154.734 142.934-43.305 50.908-63.474 98.781-63.474 150.66 0 47.739 16.42 92.449 46.236 125.892 31.416 35.238 74.97 54.646 122.634 54.646 53.202 0 99.322-25.107 133.367-72.605 2.554-3.561 4.943-7.12 7.18-10.648 2.236 3.525 4.626 7.086 7.18 10.648 34.047 47.498 80.164 72.605 133.367 72.605 47.664 0 91.216-19.408 122.638-54.65 29.814-33.442 46.234-78.151 46.234-125.89 0-83.99-54.262-146.667-112.906-201.889-30.203-28.44-65.010-57.761-105.313-91.713-23.19-19.533-47.169-39.731-72.649-61.769-5.323-4.606-11.938-6.907-18.551-6.907-6.617 0-13.23 2.302-18.555 6.907-25.481 22.042-49.464 42.244-72.654 61.778z" />
<glyph unicode="&#xe90a;" glyph-name="fire" d="M704.469 659.548c118.32-150.367 175.122-329.603 137.193-483.754-27.504-111.982-79.002-211.349-345.269-211.349-179.73 0-297.282 134.076-297.282 275.288 0 240.615 118.357 360.959 29.589 691.823 0 0 177.535-120.308 236.714-330.864 59.142 90.249 60.715 179.777 60.715 179.777s116.821-119.623 116.821-270.026c0 0 59.654 68.299 61.519 149.105zM784.020 190.463c24.542 99.872 2.085 218.738-60.276 332.414-59.215-99.439-138.181-165.54-138.181-165.54 0 120.884-16.13 243.066-33.722 279.469-22.933-56.586-108.262-178.407-108.262-178.407s-32.625 170.947-124.319 299.94c8.668-120.668-11.302-211.89-30.796-301.022-15.362-70.318-29.845-136.743-29.845-217.585 0-105.603 88.914-214.846 237.775-214.846 246.918 0 268.534 87.942 287.627 165.576zM717.307 423.978l5.523-31.248c12.362-70.065 5.45-152.89-17.593-211.025-2.341-5.911-7.9-9.479-13.752-9.479-1.865 0-3.767 0.36-5.596 1.081-7.608 3.136-11.302 11.93-8.229 19.643 17.373 43.791 24.688 105.458 20.043 161.792-29.845-33.915-67.481-69.236-147.837-108.053l-15.032-7.244-5.413 15.967c-10.717 31.753-21.579 63.794-26.297 108.522-16.056-25.806-30.76-48.765-55.411-82.932l-15.106-20.904-10.46 23.679c-25.603 58.172-45.097 103.584-60.532 143.555-14.301-46.674-24.981-100.701-24.981-209.764 0-8.362-6.693-15.138-14.849-15.138-8.266 0-14.886 6.776-14.886 15.138 0 142.293 18.58 197.149 38.221 255.212l15.435 45.629 14.228-40.799c15.325-43.863 35.478-92.159 63.97-157.503 18.8 26.959 31.418 47.287 46.633 71.795l45.097 71.867v-51.648c0-58.136 10.278-96.16 21.616-130.652 79.039 40.439 108.665 75.616 139.973 112.739l25.237 29.771z" />
<glyph unicode="&#xe90b;" glyph-name="gift" d="M238.644 392.18l177.471 25.294c9.437 1.345 18.958-1.82 25.7-8.544l142.652-142.264h12.663l254.895 86.733c41.6 17.323 89.016-1.993 107.527-43.349 18.304-40.894 2.089-89.377-34.814-108.85l-305.891-201.531c-5.616-3.7-12.306-5.429-19.016-4.914l-361.186 27.719v-27.808c0-16.691-13.562-30.222-30.292-30.222h-60.585c-47.022 0-90.877 43.753-90.877 90.667v302.222c0 45.336 39.913 91.769 90.869 90.651l60.585 0.016c16.733 0.004 30.3-13.528 30.3-30.222v-25.598zM238.644 331.122v-248.024l355.487-27.282 299.665 197.274c11.065 5.884 15.855 20.207 10.436 32.315-5.212 11.645-17.864 16.798-30.753 11.503l-261.54-89.065-9.785-1.62h-212.047c-16.73 0-30.292 13.531-30.292 30.222s13.562 30.222 30.292 30.222h108.663l-89.077 88.834-171.048-24.379zM783.907 568.889v-302.222h-60.585v302.222h-181.755v-302.222h-60.585v302.222h-181.755v-181.616h-60.585v181.616c-33.46 0-60.585 27.062-60.585 60.444v60.444c0 33.383 27.125 60.444 60.585 60.444h58.546c-30.661 30.153-50.888 61.223-56.769 88.535-4.397 20.498-3.811 47.191 40.111 72.075 24.568 13.942 46.228 20.723 66.218 20.723 71.326 0 127.041-95.262 162.383-181.333h4.172c29.756 72.653 73.802 150.882 130.489 174.722 33.715 14.14 66.884 3.798 98.32-14.043 31.587-17.896 47.194-39.423 40.107-72.084-5.887-27.33-26.134-58.422-56.825-88.595h58.511c33.46 0 60.585-27.062 60.585-60.444v-60.444c0-33.383-27.125-60.444-60.585-60.444zM450.83 750.222c-23.045 51.883-57.524 113.518-94.565 129.097-2.905 1.217-5.204 2.179-9.519 2.179-5.346 0-17.358-1.724-37.753-13.295-17.411-9.868-16.752-12.958-15.3-19.724 5.521-25.621 35.214-62.944 83.942-98.258h73.195zM644.918 750.222c48.807 35.361 78.497 72.721 84.017 98.344 1.446 6.75 2.092 9.847-15.284 19.69-20.414 11.589-32.437 13.314-37.785 13.314-4.316 0-6.616-0.962-9.532-2.186-37.042-15.569-71.542-77.239-94.603-129.162h73.187zM541.568 629.333h242.339v60.444h-545.264v-60.444h242.339v60.444h60.585v-60.444z" />
<glyph unicode="&#xe90c;" glyph-name="heart-clip" d="M547.079 784.139c92.235 105.181 252.521 115.392 358.009 22.807 2.466-2.183 2.466-2.183 4.893-4.408 105.55-97.579 115.662-260.774 22.925-369.983l-340.389-400.853c-38.452-45.283-106.437-50.698-151.847-12.095-4.843 4.117-9.314 8.652-13.361 13.553l-337.832 409.116c-87.451 105.904-81.602 260.339 13.586 358.721 92.835 95.949 244.882 98.197 340.359 5.798 2.245-2.173 4.448-4.389 6.607-6.647l57.944-60.605 39.106 44.595zM372.28 725.832c-1.19 1.245-2.405 2.467-3.643 3.665-52.647 50.949-136.487 49.71-187.262-2.768-57.866-59.807-61.376-152.468-8.905-216.011l337.832-409.116 340.389 400.853c55.415 65.259 49.373 162.777-13.699 221.086-1.397 1.28-1.397 1.28-2.815 2.536-60.692 53.269-152.913 47.394-205.981-13.122l-158.442-180.68c-18.554-21.158-17.613-53.095 2.157-73.251l2.838-2.893c0.663-0.676 1.348-1.33 2.053-1.962 17.958-16.078 45.502-14.596 61.521 3.309l144.647 161.686c19.804 22.137 53.858 23.969 76.061 4.091s24.147-53.937 4.343-76.075l-144.647-161.686c-55.627-62.179-151.277-67.324-213.642-11.49-2.45 2.193-4.827 4.465-7.13 6.812l-2.838 2.893c-59.311 60.468-62.133 156.281-6.472 219.754l48.142 54.899-64.507 67.47z" />
<glyph unicode="&#xe90d;" glyph-name="heart" d="M511.985 760.343c-110.314 97.955-280.487 95.772-387.001-8.335-109.756-107.249-109.756-281.135 0-388.414 31.367-30.641 324.252-316.835 324.252-316.835 34.698-33.901 90.816-33.901 125.514 0 0 0 320.716 313.369 324.267 316.835 109.756 107.279 109.756 281.164 0 388.414-106.499 104.107-276.702 106.29-387.031 8.335z" />
<glyph unicode="&#xe90e;" glyph-name="home" d="M160.506 352.414c-18.898 0-36.13-1.268-53.121 0.276-34.575 3.137-58.923 22.643-71.698 54.844-13.16 33.127-8.672 65.751 15.821 91.596 22.329 23.537 457.848 401.787 460.493 403.981 25.695-22.529 444.017-387.011 444.017-387.011 20.614-17.897 36.066-37.971 39.063-66.401 5.049-47.87-30.776-93.319-77.87-97.041-17.279-1.365-34.751-0.228-53.265-0.228 0-6.551-0.016-179.892 0-262.483 0.016-25.293-5.899-48.439-23.242-67.49-15.324-16.824-34.094-26.674-56.599-28.787-5.129-0.471-10.291-0.634-15.42-0.634-170.919-0.033-341.838 0.114-512.757-0.146-31.081-0.049-57.080 9.883-76.732 35.078-14.138 18.124-18.674 39.288-18.674 61.833-0.032 82.591-0.016 262.613-0.016 262.613zM451.556 83.12h120.889v213.177h-120.889v-213.177zM906.856 441.165c-132.577 115.361-263.423 226.458-394.59 340.583-131.263-114.158-262.109-225.223-395.119-340.908h131.648v-357.671h142.317v273.809h241.778v-273.826h143.474v358.013h130.493z" />
<glyph unicode="&#xe90f;" glyph-name="idus-hexa" d="M228.481 779.581c18.050 10.362 39.71 0 39.71-17.27v-621.714c0-17.27-21.66-31.086-39.71-20.724l-108.3 58.717c-14.44 6.908-21.66 17.27-28.88 31.086-10.83 10.362-3.61 27.632-3.61 41.448v397.206c0 13.816-3.61 27.632 3.61 41.448 10.83 13.816 10.83 24.178 25.27 31.086l111.91 58.717zM887.302 720.863l-342.429 200.33c-13.697 6.908-27.394 10.362-44.516 10.362-13.697 0-30.819-3.454-44.516-10.362l-106.153-65.625c-17.121-10.362-20.546-27.632-20.546-48.356v-718.425c0-20.724 3.424-37.994 20.546-48.356l109.577-65.625c13.697-6.908 27.394-10.362 41.091-10.362s27.394 3.454 41.091 10.362l342.429 200.33c13.697 6.908 30.819 17.27 37.667 31.086s17.121 27.632 17.121 41.448v397.206c0 17.27-10.273 31.086-17.121 44.902s-20.546 24.178-34.243 31.086zM542.476 189.053c-16.931-10.36-30.476 3.453-30.476 20.72v480.010c0 17.267 16.931 31.080 30.476 20.72l182.857-107.053c6.772-3.453 16.931-10.36 20.317-17.267s10.159-13.813 10.159-20.72v-234.825c0-6.907-10.159-17.267-13.545-24.173-3.386-3.453-13.545-6.907-20.317-10.36-89.735-53.526-179.471-107.053-179.471-107.053z" />
<glyph unicode="&#xe910;" glyph-name="medal" d="M734.815 298.622v-334.177l-243.013 90.741-231.061-90.741v334.177c-72.741 66.401-118.519 162.897-118.519 270.298 0 200.278 159.188 362.636 355.556 362.636s355.556-162.358 355.556-362.636c0-107.401-45.778-203.896-118.519-270.298zM675.556 254.798c-52.297-30.855-113.016-48.514-177.778-48.514s-125.48 17.659-177.778 48.514v-202.317l171.277 67.263 184.279-68.809v203.863zM497.778 266.723c163.64 0 296.296 135.298 296.296 302.197s-132.656 302.197-296.296 302.197c-163.64 0-296.296-135.298-296.296-302.197s132.656-302.197 296.296-302.197zM497.778 296.942c-147.276 0-266.667 121.768-266.667 271.977s119.391 271.977 266.667 271.977c147.276 0 266.667-121.768 266.667-271.977s-119.391-271.977-266.667-271.977zM497.778 327.162c130.912 0 237.037 108.238 237.037 241.757s-106.125 241.757-237.037 241.757c-130.912 0-237.037-108.238-237.037-241.757s106.125-241.757 237.037-241.757zM394.833 414.884c1.062 6.483 2.021 12.394 2.998 18.301 4.166 25.178 8.337 50.356 12.505 75.533 0.68 4.111 1.486 8.206 1.96 12.343 0.131 1.148-0.379 2.776-1.174 3.578-17.479 17.61-35.037 35.136-52.581 52.677-6.374 6.372-12.757 12.735-19.121 19.12-3.128 3.137-4.74 6.82-3.283 11.309 1.504 4.634 4.952 6.796 9.512 7.467 31.698 4.662 63.379 9.448 95.103 13.906 4.244 0.597 6.461 2.156 8.362 6.145 14.505 30.428 29.313 60.704 43.984 91.049 1.729 3.578 3.946 6.283 8.179 6.364 3.542 0.068 6.274-1.402 7.884-4.679 3.62-7.368 7.182-14.766 10.747-22.162 11.933-24.757 23.848-49.524 35.831-74.256 0.368-0.76 1.356-1.571 2.151-1.692 23.378-3.557 46.768-7.023 70.155-10.52 9.891-1.478 19.775-3.009 29.666-4.489 4.456-0.668 7.544-3.143 8.881-7.507 1.292-4.22-0.093-7.873-3.108-10.894-14.677-14.705-29.364-29.397-44.054-44.088-9.286-9.288-18.553-18.597-27.913-27.806-1.282-1.261-1.226-2.496-0.983-3.965 2.767-16.701 5.53-33.403 8.299-50.103 2.939-17.728 5.896-35.453 8.824-53.184 0.634-3.842-0.491-7.035-3.561-9.427-3.262-2.541-6.683-2.624-10.24-0.707-13.117 7.070-26.237 14.133-39.354 21.203-17.014 9.171-34.038 18.323-51.020 27.558-1.538 0.836-2.68 0.764-4.171-0.044-29.794-16.151-59.615-32.252-89.429-48.363-5.575-3.013-10.704-1.968-13.522 2.948-0.825 1.439-1.127 3.193-1.527 4.381z" />
<glyph unicode="&#xe911;" glyph-name="message" d="M549.273 162.841l22.701 2.805c202.355 25 352.47 172.929 352.47 345.564 0 191.342-183.359 349.235-412.444 349.235s-412.444-157.892-412.444-349.235c0-172.636 150.115-320.565 352.47-345.564l22.701-2.805 37.273-74.547 37.273 74.547zM446.794 123.301c-220.46 27.236-389.905 190.533-389.905 387.909 0 216.441 203.76 391.901 455.111 391.901s455.111-175.46 455.111-391.901c0-197.376-169.445-360.673-389.905-387.909l-65.206-130.412-65.206 130.412zM328.691 448c31.419 0 56.889 25.47 56.889 56.889s-25.47 56.889-56.889 56.889c-31.419 0-56.889-25.47-56.889-56.889s25.47-56.889 56.889-56.889zM518.321 448c31.419 0 56.889 25.47 56.889 56.889s-25.47 56.889-56.889 56.889c-31.419 0-56.889-25.47-56.889-56.889s25.47-56.889 56.889-56.889zM707.951 448c31.419 0 56.889 25.47 56.889 56.889s-25.47 56.889-56.889 56.889c-31.419 0-56.889-25.47-56.889-56.889s25.47-56.889 56.889-56.889z" />
<glyph unicode="&#xe912;" glyph-name="pencil" d="M962.207 88.621h-566.927c9.095 6.117 15.158 9.176 24.254 18.351l409.279 412.903c72.761 73.405 66.697 198.805-18.19 284.444-45.475 42.82-103.078 70.346-157.648 70.346-48.507 0-93.983-18.351-124.3-48.937l-406.247-409.845c-12.127-12.234-21.222-27.527-27.285-45.878l-63.666-226.332c0 0-3.032-18.351-3.032-27.527 0-51.995 42.444-94.815 93.983-94.815v0 0h845.843c15.158 0 27.285 12.234 27.285 27.527v12.234c-6.063 15.293-18.19 27.527-33.349 27.527v0zM416.502 330.246c-9.095 15.293-21.222 33.644-36.38 45.878-15.158 15.293-36.38 30.585-54.571 39.761l254.662 253.859c21.222-9.176 39.412-21.41 57.602-39.761 15.158-15.293 24.254-30.585 33.349-45.878l-254.662-253.859zM656.006 425.061v0 0l-206.155-207.981v21.41c-3.032 24.468-9.095 48.937-18.19 70.346l251.631 253.859c12.127-51.995 6.063-103.99-27.285-137.634v0zM558.991 782.91c21.222 21.41 54.571 33.644 87.919 33.644 42.444 0 87.919-18.351 121.268-51.995 33.349-30.585 51.539-70.346 54.571-110.108 3.032-36.703-9.095-70.346-33.349-97.873l-45.475-45.878v18.351c-6.063 51.995-30.317 100.932-66.697 140.693-42.444 42.82-100.046 67.288-157.648 67.288l39.412 45.878zM428.628 651.393c30.317 30.585 78.824 39.761 121.268 27.527l-251.631-250.8c-24.254 9.176-51.539 15.293-75.792 15.293l206.155 207.981zM137.586 348.597c3.032 6.117 6.063 12.234 9.095 18.351 54.571 39.761 136.426 27.527 194.029-30.585 60.634-61.171 69.729-149.869 24.254-201.864-3.032-3.059-6.063-3.059-9.095-3.059l-100.046-24.468c0 36.703-15.158 73.405-45.475 103.99-27.285 27.527-63.666 42.82-100.046 45.878l27.285 91.756zM113.332 67.211c-21.222 0-39.412 18.351-39.412 39.761 0 3.059 3.032 12.234 3.032 15.293l27.285 100.932c30.317 0 63.666-12.234 87.919-36.703 27.285-27.527 39.412-61.171 36.38-91.756l-100.046-27.527c0 3.059-9.095 3.059-15.158 0v0z" />
<glyph unicode="&#xe913;" glyph-name="profile-round" d="M512-64c-282.77 0-512 229.23-512 512s229.23 512 512 512c282.77 0 512-229.23 512-512s-229.23-512-512-512zM512-32c265.097 0 480 214.903 480 480s-214.903 480-480 480c-265.097 0-480-214.903-480-480s214.903-480 480-480zM119.841 171.145c42.689 120.308 139.171 215.148 260.521 255.597-55.975 40.722-92.362 106.741-92.362 181.258 0 123.712 100.288 224 224 224s224-100.288 224-224c0-74.517-36.387-140.536-92.362-181.258 121.35-40.449 217.832-135.289 260.521-255.597-14.853-21.001-31.351-40.756-49.306-59.078-36.247 155.829-175.992 271.934-342.854 271.934s-306.607-116.104-342.854-271.934c-17.955 18.322-34.452 38.078-49.306 59.078zM512 448c88.366 0 160 71.634 160 160s-71.634 160-160 160c-88.366 0-160-71.634-160-160s71.634-160 160-160z" />
<glyph unicode="&#xe914;" glyph-name="profile" d="M358.985 427.608c-65.065 47.78-107.361 125.242-107.361 212.676 0 145.155 116.574 262.827 260.376 262.827s260.376-117.672 260.376-262.827c0-87.434-42.296-164.896-107.361-212.676 192.067-64.623 330.54-247.57 330.54-463.164h-74.393c0 228.101-183.188 413.013-409.162 413.013s-409.162-184.912-409.162-413.013h-74.393c0 215.594 138.473 398.541 330.54 463.164zM512 452.551c102.716 0 185.983 84.051 185.983 187.733s-83.267 187.733-185.983 187.733c-102.716 0-185.983-84.051-185.983-187.733s83.267-187.733 185.983-187.733z" />
<glyph unicode="&#xe915;" glyph-name="profile2" d="M987.257 134.149c30.987-80.888-28.677-169.705-114.691-169.705h-721.147c-86.014 0-145.678 88.817-114.664 169.775 49.482 128.726 142.739 224.581 260.634 276.487-55.615 55.226-90.092 131.717-90.092 216.143 0 168.079 136.645 304.706 304.695 304.706 168.091 0 304.695-136.609 304.695-304.706 0-84.439-34.469-160.932-90.083-216.156 117.898-51.912 211.154-147.777 260.652-276.544zM358.714 363.553c-117.351-40.112-211.873-127.557-260.132-253.101-14.639-38.214 14.022-79.767 52.837-79.767h721.147c38.814 0 67.476 41.553 52.837 79.767-48.255 125.533-142.766 212.975-260.123 253.091-45.047-26.314-97.428-41.4-153.287-41.4-55.849 0-108.229 15.090-153.278 41.409zM511.993 865.315c-131.45 0-238.457-106.952-238.457-238.466s107.008-238.466 238.457-238.466c131.509 0 238.457 106.952 238.457 238.466s-106.948 238.466-238.457 238.466z" />
<glyph unicode="&#xe916;" glyph-name="share" d="M695.865 221.764l-324.494 192c2.276 10.641 4.096 21.282 4.096 32.386s-1.82 21.745-4.096 32.386l320.853 190.149c24.576-23.133 56.889-37.475 92.843-37.475 75.548 0 136.533 61.995 136.533 138.795s-60.985 138.795-136.533 138.795c-75.548 0-136.533-61.995-136.533-138.795 0-11.104 1.82-21.745 4.096-32.386l-320.853-190.149c-24.576 23.133-56.889 37.475-92.843 37.475-75.548 0-136.533-61.995-136.533-138.795s60.985-138.795 136.533-138.795c35.954 0 68.267 14.342 92.843 37.475l324.039-192.463c-2.276-9.716-3.641-19.894-3.641-30.072 0-74.487 59.62-135.094 132.892-135.094s132.892 60.607 132.892 135.094c0 74.487-59.62 135.094-132.892 135.094-34.588 0-65.536-13.88-89.202-35.624z" />
<glyph unicode="&#xe917;" glyph-name="start-half" d="M512.021 149.42l206.87-113.665c45.422-24.957 75.259-3.931 66.933 46.804l-40.095 244.321 167.985 171.133c36.123 36.8 24.286 73.247-26.829 81.010l-230.424 34.993-104.588 221.481c-10.852 22.981-25.749 34.631-39.872 35.048 0 0 0.007-240.375 0.021-721.125zM327.691-5.238c-79.363-43.606-150.305 6.078-135.651 95.369l36.254 220.916-151.368 154.204c-62.971 64.151-35.604 146.531 53.202 160.017l205.777 31.25 93.947 198.945c38.905 82.388 125.333 82.596 164.337 0l93.947-198.945 205.777-31.25c88.876-13.497 116.038-96.004 53.202-160.017l-151.368-154.204 36.254-220.916c14.67-89.392-56.164-139.043-135.651-95.369l-184.33 101.28-184.33-101.28z" />
<glyph unicode="&#xe918;" glyph-name="story" d="M134.305 931.556h726.945c27.046 0 48.972-21.925 48.972-48.972v-869.167c0-27.046-21.925-48.972-48.972-48.972h-726.945c-27.046 0-48.972 21.925-48.972 48.972v869.167c0 27.046 21.925 48.972 48.972 48.972zM154.074 862.476v-483.556h687.407v483.556h-687.407zM154.074 309.841v-69.079h687.407v69.079h-687.407zM154.074 206.222v-69.079h549.926v69.079h-549.926zM154.074 102.603v-69.079h618.667v69.079h-618.667zM669.63 758.857l103.111-306.075h-549.926l171.852 191.297 103.111-76.519 171.852 191.297zM274.37 689.778c-28.473 0-51.556 23.196-51.556 51.81s23.082 51.81 51.556 51.81c28.473 0 51.556-23.196 51.556-51.81s-23.082-51.81-51.556-51.81z" />
<glyph unicode="&#xe919;" glyph-name="thumb" d="M909.592 489.66c-0.578-14.056-6.477-41.66-56.259-41.66h-56.889c-7.859 0-14.213-6.354-14.213-14.213 0-7.877 6.354-14.231 14.213-14.231h55.121c42.658 0 48.277-35.411 45.494-52.46-3.466-21.215-13.443-61.335-61.475-61.335h-67.584c-7.859 0-14.213-6.337-14.213-14.231 0-7.824 6.354-14.213 14.213-14.213h56.014c47.997 0 43.796-36.619 36.882-58.447-9.050-28.707-14.616-55.314-75.076-55.314h-46.421c-7.859 0-14.231-6.337-14.231-14.231 0-7.824 6.372-14.213 14.231-14.213h44.601c31.123 0 32.593-29.442 29.337-39.997-3.553-11.553-7.737-20.112-7.929-20.515-8.63-15.491-22.458-24.821-51.795-24.821h-155.455c-78.157 0-155.613 17.714-157.626 18.169-118.154 27.219-124.385 29.32-131.807 31.438 0 0-24.051 4.061-24.051 25.049l-0.21 392.866c0 13.338 8.49 25.399 22.581 29.635 1.75 0.7 4.131 1.435 5.846 2.153 129.952 53.791 169.511 171.787 170.667 268.691 0.175 13.601 10.678 28.444 28.462 28.444 30.072 0 83.215-60.372 83.215-135.063 0-67.444-2.696-79.102-26.326-149.381 284.427 0 282.431-4.078 307.55-10.66 31.105-8.892 33.766-34.676 33.766-43.568 0-9.75-0.263-8.332-0.63-17.889zM886.451 605.241c-35.516 9.347-119.169 9.225-241.436 12.446 5.794 26.712 7.107 50.762 7.107 93.473 0 102.050-74.341 191.952-140.104 191.952-46.456 0-84.756-37.984-85.351-84.668-0.63-57.274-18.327-156.226-113.778-206.393-6.984-3.693-27.027-13.548-29.932-14.861l1.505-1.278c-14.949 12.883-35.639 22.756-56.906 22.756h-85.316c-47.069 0-85.351-38.282-85.351-85.333v-455.111c0-47.051 38.282-85.333 85.351-85.333h85.316c33.871 0 62.175 20.445 75.899 49.117 0.333-0.123 0.945-0.28 1.33-0.35 1.89-0.49 4.078-1.050 6.809-1.768 0.49-0.105 0.77-0.158 1.295-0.333 16.402-4.061 47.927-11.623 115.353-27.114 14.459-3.273 90.76-19.552 169.914-19.552h155.455c47.419 0 81.57 18.222 101.892 54.823 0.315 0.56 6.862 13.338 12.2 30.615 3.991 13.006 5.496 31.385 0.665 50.062 30.527 21.005 40.365 52.723 46.771 73.378 10.695 33.888 7.474 59.322 0.035 77.544 17.172 16.226 31.84 40.96 38.019 78.664 3.833 23.403-0.28 47.454-11.080 67.496 16.121 18.082 23.473 40.837 24.278 61.878l0.333 5.951c0.228 3.746 0.385 6.056 0.385 14.248 0 35.954-24.856 81.762-80.66 97.691z" />
<glyph unicode="&#xe91a;" glyph-name="thunder" d="M332.961-35.477c-11.711 6.794 190.602 384.708 183.643 401.275s-221.492 77.203-231.972 106.377c-10.481 29.174 423.55 467.724 434.964 459.259 11.372-8.429-189.159-388.886-183.643-401.239 5.474-12.389 225.353-75.532 231.972-106.377s-423.253-466.090-434.964-459.296z" />
<glyph unicode="&#xe91b;" glyph-name="video" d="M898.844 173.326h32.237v576.896h-32.237l-161.185-160v-256l161.185-160.896zM125.156 142.222h515.793c17.763 0 32.237 14.368 32.237 32v576c0 17.664-14.474 32-32.237 32h-515.793c-17.827 0-32.237-14.304-32.237-32v-576c0-17.632 14.41-32 32.237-32zM931.081 814.222c35.59 0 64.474-28.64 64.474-64v-576.896c0-35.328-28.884-64-64.474-64h-28.594c-16.924 0-33.172 6.624-45.261 18.432l-119.567 110.464v-64c0-53.024-43.327-96-96.711-96h-515.793c-53.449 0-96.711 42.976-96.711 96v576c0 52.96 43.391 96 96.711 96h515.793c53.385 0 96.711-42.944 96.711-96v-64l119.567 109.568c12.089 11.808 28.336 18.432 45.261 18.432h28.594zM543.17 462.222l-288-161.185v322.37l288-161.185z" />
<glyph unicode="&#xe91c;" glyph-name="star" d="M512.087 81.277l-190.961-104.675c-89.609-49.119-158.537-0.142-141.943 100.732l37.431 227.547-156.088 158.636c-71.389 72.555-44.735 154.46 55.833 169.696l212.724 32.229 97.223 205.394c43.813 92.561 127.756 92.545 171.562 0l97.223-205.394 212.724-32.229c100.514-15.228 127.187-97.178 55.833-169.696l-156.088-158.636 37.431-227.547c16.543-100.564-52.628-149.689-141.943-100.732l-190.961 104.675zM255.285 59.27c3.087 0.611 8.868 2.878 16.62 7.127l10.172 5.576-1.852-11.26c-1.294-7.863-1.608-13.705-1.335-17.113-0.639 1.764-3.445 6.47-9.296 10.628-5.359 3.808-10.338 5.063-13.427 5.057l-0.882-0.014zM512.087 198.052l230.010-126.079-44.026 267.635 189.938 193.038-262.152 39.717-113.77 240.352-113.77-240.352-262.152-39.717 189.938-193.038-44.026-267.635 230.010 126.079zM527.362 842.074c0.419 0.317 0.781 0.632 1.084 0.939-0.112-0.113-0.229-0.237-0.35-0.37l-0.735-0.569zM496.81 841.774c-0.394 0.495-0.757 0.907-1.083 1.237 0.115-0.117 0.239-0.234 0.371-0.353l0.712-0.884zM901.6 548.793c0.257 0.462 0.472 0.887 0.644 1.274-0.060-0.135-0.118-0.286-0.173-0.453l-0.471-0.821zM767.559 59.647c0.57-0.15 1.074-0.257 1.51-0.324-0.154 0.024-0.316 0.043-0.486 0.058l-1.024 0.266z" />
<glyph unicode="&#xe91d;" glyph-name="arrow-down" d="M119.808 538.539l392.192-392.277 392.192 392.277 90.539-90.539-482.731-482.731-482.731 482.731z" />
<glyph unicode="&#xe91e;" glyph-name="arrow-left" d="M602.539 840.192l-392.277-392.192 392.277-392.192-90.539-90.539-482.731 482.731 482.731 482.731z" />
<glyph unicode="&#xe91f;" glyph-name="arrow-right" d="M421.461 55.808l392.277 392.192-392.277 392.192 90.539 90.539 482.731-482.731-482.731-482.731z" />
<glyph unicode="&#xe920;" glyph-name="arrow-up" d="M904.192 357.461l-392.192 392.277-392.192-392.277-90.539 90.539 482.731 482.731 482.731-482.731z" />
<glyph unicode="&#xe921;" glyph-name="star-fill" d="M327.691-5.238c-79.363-43.606-150.305 6.078-135.651 95.369l36.254 220.916-151.368 154.204c-62.971 64.151-35.604 146.531 53.202 160.017l205.777 31.25 93.947 198.945c38.905 82.388 125.333 82.596 164.337 0l93.947-198.945 205.777-31.25c88.876-13.497 116.038-96.004 53.202-160.017l-151.368-154.204 36.254-220.916c14.67-89.392-56.164-139.043-135.651-95.369l-184.33 101.28-184.33-101.28z" />
</font>
</defs>
</svg>
